<svg width="259" height="55" viewBox="0 0 259 55" fill="none" xmlns="http://www.w3.org/2000/svg">
<path d="M191.049 12.6797C191.195 12.6797 191.341 12.6797 191.49 12.6797C191.644 12.6797 191.798 12.6776 191.958 12.6756C192.468 12.6716 192.978 12.6716 193.489 12.6716C193.846 12.6696 194.202 12.6675 194.558 12.6675C195.307 12.6655 196.055 12.6635 196.804 12.6635C197.755 12.6635 198.708 12.6594 199.661 12.6514C200.397 12.6473 201.136 12.6453 201.873 12.6473C202.223 12.6453 202.575 12.6433 202.925 12.6412C205.968 12.617 208.366 12.9162 210.707 15.0212C212.546 16.8916 213.426 18.9197 213.524 21.5343C213.489 23.7383 212.999 25.5561 211.652 27.2971C211.539 27.5014 211.425 27.7056 211.31 27.9179C210.169 29.3657 208.501 30.2979 206.796 30.9368C207.447 32.3765 208.119 33.8001 208.831 35.2094C209.382 36.2993 209.908 37.3953 210.403 38.5115C210.733 39.2293 211.097 39.9269 211.466 40.6245C211.652 41.0471 211.652 41.0471 211.652 41.6537C210.349 41.7063 209.046 41.7407 207.741 41.765C207.297 41.7751 206.854 41.7892 206.411 41.8074C205.774 41.8317 205.136 41.8438 204.499 41.8519C204.301 41.862 204.104 41.8721 203.9 41.8843C203.317 41.8843 202.89 41.86 202.344 41.6537C201.792 41.0431 201.462 40.3798 201.13 39.6317C201.045 39.4598 200.962 39.2879 200.875 39.11C200.652 38.653 200.448 38.19 200.244 37.7249C200.173 37.5651 200.1 37.4054 200.027 37.2416C199.511 36.0708 199.511 36.0708 199.511 35.3854C199.378 35.3854 199.244 35.3854 199.107 35.3854C199.036 35.173 199.036 35.173 198.965 34.9567C198.536 33.7091 198.042 32.6273 197.285 31.5435C196.885 31.6446 196.885 31.6446 196.476 31.7457C196.452 32.0025 196.43 32.2613 196.405 32.5262C196.318 33.4826 196.229 34.439 196.14 35.3955C196.104 35.808 196.065 36.2205 196.027 36.635C195.972 37.2295 195.918 37.826 195.863 38.4205C195.839 38.6975 195.839 38.6975 195.812 38.9786C195.788 39.2394 195.788 39.2394 195.764 39.5043C195.75 39.658 195.735 39.8096 195.721 39.9653C195.657 40.5315 195.557 41.0916 195.464 41.6537C192.793 41.6537 190.122 41.6537 187.371 41.6537C187.144 40.2909 187.144 40.2909 187.223 39.5993C187.239 39.4436 187.255 39.2859 187.273 39.1242C187.302 38.8694 187.302 38.8694 187.332 38.6085C187.484 37.1789 187.607 35.7493 187.694 34.3137C187.887 31.1997 188.184 28.1019 188.496 24.998C188.518 24.7716 188.542 24.5471 188.564 24.3126C188.629 23.6635 188.696 23.0144 188.763 22.3633C188.783 22.1692 188.801 21.9731 188.821 21.7729C188.904 20.9822 188.987 20.1957 189.105 19.4111C189.184 18.8611 189.2 18.3718 189.18 17.8197C189.169 16.7844 189.254 15.7754 189.368 14.7482C189.384 14.5966 189.4 14.4449 189.416 14.2892C189.568 13.0214 189.748 12.6958 191.049 12.6797ZM189.596 14.5582C189.799 15.1648 189.799 15.1648 189.799 15.1648L189.596 14.5582ZM189.394 16.5802C189.596 17.389 189.596 17.389 189.596 17.389L189.394 16.5802ZM197.488 19.6133C197.391 20.1188 197.318 20.6082 197.259 21.1177C197.243 21.2512 197.225 21.3846 197.207 21.5242C197.065 22.7071 197.065 23.8819 197.083 25.0729C197.931 25.085 198.777 25.0931 199.625 25.0992C199.983 25.1032 199.983 25.1032 200.349 25.1093C202.51 25.1659 202.51 25.1659 204.329 24.1508C204.887 23.3844 205.169 22.5857 205.177 21.6354C204.904 20.5758 204.511 19.7852 203.558 19.2089C202.939 19.1199 202.939 19.1199 202.253 19.1361C201.877 19.1361 201.877 19.1361 201.492 19.1361C201.1 19.1422 201.1 19.1422 200.699 19.1462C200.436 19.1462 200.173 19.1442 199.902 19.1442C198.574 19.0492 198.574 19.0492 197.488 19.6133ZM188.18 30.3302C188.18 30.6639 188.18 30.9975 188.18 31.3412C188.247 31.3412 188.314 31.3412 188.382 31.3412C188.382 31.0076 188.382 30.674 188.382 30.3302C188.316 30.3302 188.249 30.3302 188.18 30.3302ZM187.978 32.5545C188.18 33.3633 188.18 33.3633 188.18 33.3633L187.978 32.5545Z" fill="#F8FBFC"/>
<path d="M60.9659 12.7064C61.1197 12.7064 61.2755 12.7044 61.4353 12.7023C61.9493 12.7003 62.4632 12.6983 62.9792 12.6983C63.3373 12.6963 63.6935 12.6963 64.0516 12.6942C64.8043 12.6922 65.5571 12.6902 66.3098 12.6902C67.2689 12.6902 68.23 12.6841 69.1891 12.6781C69.9297 12.674 70.6703 12.674 71.4109 12.674C71.7629 12.672 72.117 12.672 72.4711 12.668C76.168 12.6437 78.2521 13.3494 80.9372 15.974C82.5216 17.6604 82.8838 19.8624 82.8534 22.0968C82.7462 24.7862 81.7911 26.8931 79.8547 28.7716C78.7033 29.7483 77.4812 30.3852 76.081 30.9373C76.2449 31.5358 76.2449 31.5358 76.5747 31.924C77.1311 32.6783 77.295 33.2343 77.295 34.1726C77.4286 34.1726 77.5621 34.1726 77.6997 34.1726C78.1267 35.042 78.5516 35.9135 78.9745 36.7851C79.1181 37.0803 79.2638 37.3755 79.4075 37.6707C79.6159 38.0974 79.8243 38.524 80.0307 38.9507C80.0955 39.0821 80.1602 39.2135 80.227 39.347C80.5973 40.1134 80.8684 40.8393 81.1396 41.6542C78.0012 41.6542 74.8628 41.6542 71.6294 41.6542C69.003 36.4049 69.003 36.4049 68.7966 35.1836C68.663 35.1836 68.5295 35.1836 68.3919 35.1836C68.3575 35.0683 68.3231 34.9531 68.2887 34.8358C67.9569 33.7783 67.5441 32.8966 66.9755 31.9483C66.9087 31.7481 66.8419 31.5479 66.7731 31.3417C66.2734 31.4428 66.2734 31.4428 65.7614 31.5439C65.7452 31.7865 65.727 32.0292 65.7088 32.2799C65.6441 33.1858 65.5793 34.0917 65.5125 34.9976C65.4862 35.3878 65.4579 35.7801 65.4296 36.1703C65.3891 36.7345 65.3486 37.2987 65.3082 37.8628C65.2879 38.1216 65.2879 38.1216 65.2697 38.3865C65.0532 41.3509 65.0532 41.3509 64.7497 41.6542C64.167 41.6724 63.5883 41.6784 63.0035 41.6744C62.7425 41.6744 62.7425 41.6744 62.4733 41.6724C61.9128 41.6724 61.3524 41.6703 60.7919 41.6663C60.4115 41.6663 60.0331 41.6643 59.6547 41.6643C58.7219 41.6623 57.7911 41.6582 56.8583 41.6542C56.4496 40.8373 56.6721 39.7737 56.7086 38.8799C56.7167 38.6373 56.7268 38.3946 56.7369 38.1439C56.8603 35.2928 57.1537 32.4599 57.4532 29.6229C57.5604 28.5816 57.6677 27.5382 57.7749 26.4948C57.8134 26.1146 57.8134 26.1146 57.8538 25.7284C58.0703 23.5527 58.2403 21.377 58.39 19.1992C58.473 18.0305 58.5722 16.8637 58.6794 15.697C58.6936 15.5332 58.7077 15.3715 58.7219 15.2036C58.9101 13.3009 59.0821 12.7084 60.9659 12.7064ZM58.6794 17.9961C58.8817 18.6027 58.8817 18.6027 58.8817 18.6027L58.6794 17.9961ZM66.9755 19.2093C66.7084 19.7452 66.7084 20.2042 66.6659 20.8027C66.6477 21.0393 66.6295 21.2759 66.6113 21.5185C66.5951 21.7652 66.5769 22.0139 66.5587 22.2687C66.5303 22.6408 66.5303 22.6408 66.502 23.0229C66.4575 23.6376 66.413 24.2544 66.3685 24.8711C67.2102 25.2917 68.3029 25.1198 69.2276 25.1238C69.4522 25.1279 69.6788 25.1319 69.9115 25.136C71.3481 25.1441 72.714 25.1461 73.8309 24.1169C74.44 23.0876 74.6949 22.2222 74.4622 21.0292C74.2113 20.3599 73.9098 19.7896 73.3048 19.3751C72.6816 19.1507 72.1433 19.1648 71.4817 19.1709C71.0871 19.1729 71.0871 19.1729 70.6865 19.1749C70.4113 19.177 70.1341 19.181 69.8589 19.1851C69.5797 19.1871 69.3004 19.1891 69.0212 19.1891C68.3393 19.1952 67.6574 19.2012 66.9755 19.2093ZM58.4771 19.8159C58.4771 20.1496 58.4771 20.4832 58.4771 20.827C58.5438 20.827 58.6106 20.827 58.6794 20.827C58.6794 20.4933 58.6794 20.1597 58.6794 19.8159C58.6126 19.8159 58.5458 19.8159 58.4771 19.8159ZM57.263 33.7681C57.4653 34.577 57.4653 34.577 57.4653 34.577L57.263 33.7681ZM57.0606 35.7902C57.0606 36.1238 57.0606 36.4575 57.0606 36.8012C57.1274 36.8012 57.1942 36.8012 57.263 36.8012C57.263 36.4676 57.263 36.134 57.263 35.7902C57.1962 35.7902 57.1294 35.7902 57.0606 35.7902Z" fill="#F8FBFC"/>
<path d="M218.387 12.7096C218.521 12.7096 218.652 12.7076 218.79 12.7076C219.233 12.7056 219.674 12.7056 220.117 12.7056C220.425 12.7035 220.733 12.7035 221.042 12.7035C221.69 12.7015 222.337 12.7015 222.985 12.7015C223.81 12.7015 224.634 12.6995 225.459 12.6954C226.097 12.6934 226.734 12.6934 227.371 12.6934C227.675 12.6934 227.978 12.6914 228.284 12.6894C232.005 12.6732 234.644 13.3324 237.375 15.9368C239.986 18.6524 240.839 21.9544 240.852 25.6306C240.854 25.8429 240.854 25.8429 240.854 26.0592C240.856 28.1986 240.718 30.1236 239.979 32.1517C239.921 32.3337 239.862 32.5177 239.803 32.7057C238.589 36.1776 235.698 38.9782 232.454 40.6059C229.986 41.621 227.392 41.7443 224.759 41.714C224.46 41.712 224.16 41.712 223.861 41.712C223.086 41.7079 222.311 41.7019 221.534 41.6958C220.739 41.6897 219.941 41.6877 219.146 41.6837C217.592 41.6776 216.038 41.6675 214.484 41.6554C214.063 39.4008 214.312 37.128 214.541 34.8633C214.567 34.5883 214.593 34.3153 214.62 34.0423C214.676 33.4721 214.733 32.9039 214.79 32.3357C214.863 31.6098 214.933 30.8859 215.004 30.16C215.073 29.4603 215.142 28.7627 215.211 28.0631C215.237 27.8063 215.261 27.5475 215.287 27.2806C215.488 25.2868 215.488 25.2868 215.615 24.4294C215.698 23.8592 215.706 23.3355 215.686 22.7613C215.678 22.0717 215.706 21.4874 215.901 20.8282C216.079 20.2094 216.119 19.6877 216.103 19.0447C216.081 17.9508 216.17 16.8831 216.281 15.7973C216.303 15.5486 216.303 15.5486 216.327 15.2938C216.605 12.7157 216.605 12.7157 218.387 12.7096ZM224.399 19.2105C224.312 19.7059 224.251 20.1851 224.205 20.6866C224.189 20.8443 224.172 21.0041 224.156 21.1679C224.1 21.728 224.047 22.2881 223.994 22.8502C223.952 23.289 223.909 23.7298 223.869 24.1686C223.754 25.3778 223.642 26.587 223.531 27.7982C223.462 28.5545 223.393 29.3127 223.323 30.071C223.278 30.5563 223.233 31.0416 223.189 31.5269C223.169 31.7513 223.149 31.9758 223.126 32.2083C223.031 33.2719 222.958 34.3173 222.983 35.387C223.66 35.7247 224.405 35.5771 225.146 35.5386C225.384 35.5285 225.384 35.5285 225.631 35.5204C227.365 35.4315 228.834 34.8309 230.061 33.555C231.584 31.7715 232.448 29.8506 232.493 27.501C232.501 27.1795 232.501 27.1794 232.509 26.8539C232.517 26.1927 232.511 25.5335 232.493 24.8723C232.489 24.7065 232.487 24.5407 232.483 24.3708C232.379 22.7147 231.689 21.3296 230.457 20.2215C229.118 19.1195 227.883 18.978 226.169 18.982C225.923 18.982 225.676 18.982 225.421 18.98C224.82 18.9638 224.82 18.9638 224.399 19.2105ZM215.901 21.637C215.901 21.9706 215.901 22.3043 215.901 22.648C215.967 22.648 216.034 22.648 216.103 22.648C216.103 22.3144 216.103 21.9807 216.103 21.637C216.036 21.637 215.969 21.637 215.901 21.637ZM232.493 24.2657C232.695 24.8723 232.695 24.8723 232.695 24.8723L232.493 24.2657ZM232.493 27.501C232.695 28.3098 232.695 28.3098 232.695 28.3098L232.493 27.501ZM214.686 35.7914C214.889 36.6002 214.889 36.6002 214.889 36.6002L214.686 35.7914ZM214.484 37.8135C214.686 38.6223 214.686 38.6223 214.686 38.6223L214.484 37.8135Z" fill="#F8FBFC"/>
<path d="M168.826 12.6363C169.014 12.6363 169.2 12.6342 169.395 12.6342C169.712 12.6302 169.712 12.6302 170.038 12.6262C170.269 12.6282 170.497 12.6302 170.734 12.6322C170.969 12.6302 171.206 12.6302 171.448 12.6302C171.946 12.6282 172.446 12.6302 172.944 12.6342C173.709 12.6383 174.473 12.6342 175.238 12.6282C175.722 12.6282 176.206 12.6302 176.691 12.6322C176.92 12.6302 177.148 12.6282 177.385 12.6262C177.598 12.6282 177.812 12.6322 178.031 12.6342C178.312 12.6363 178.312 12.6363 178.597 12.6363C179.075 12.7394 179.075 12.7394 179.433 13.1155C179.747 13.6615 179.864 14.1609 179.993 14.7797C180.048 15.0304 180.101 15.2811 180.155 15.5379C180.212 15.8149 180.269 16.0899 180.325 16.367C180.388 16.6561 180.449 16.9473 180.511 17.2365C180.641 17.8512 180.77 18.4659 180.9 19.0806C181.09 19.9885 181.288 20.8984 181.487 21.8043C182.426 26.1072 183.332 30.4142 184.23 34.7252C184.445 35.7524 184.659 36.7776 184.878 37.8028C184.927 38.0313 184.973 38.2598 185.024 38.4964C185.109 38.9008 185.196 39.3072 185.283 39.7116C185.319 39.8835 185.356 40.0554 185.392 40.2333C185.422 40.3769 185.453 40.5225 185.485 40.6721C185.55 41.0482 185.55 41.0482 185.55 41.6548C184.378 41.6751 183.209 41.6892 182.039 41.6993C181.64 41.7034 181.242 41.7094 180.843 41.7155C180.271 41.7256 179.7 41.7297 179.127 41.7337C178.949 41.7377 178.771 41.7418 178.587 41.7458C177.361 41.7458 177.361 41.7458 176.845 41.3091C176.628 40.8056 176.523 40.3789 176.454 39.837C176.416 39.5539 176.416 39.5539 176.378 39.2648C176.341 38.9716 176.341 38.9716 176.305 38.6723C176.278 38.4721 176.252 38.274 176.226 38.0697C176.161 37.5804 176.098 37.089 176.04 36.5997C175.716 36.6017 175.716 36.6017 175.386 36.6017C174.585 36.6058 173.783 36.6078 172.982 36.6098C172.636 36.6118 172.29 36.6118 171.944 36.6138C171.444 36.6179 170.947 36.6179 170.447 36.6199C170.216 36.6199 170.216 36.6199 169.979 36.6219C169.208 36.6219 168.492 36.5835 167.744 36.3975C167.031 38.1365 166.38 39.8936 165.72 41.6548C162.916 41.6548 160.111 41.6548 157.222 41.6548C156.951 40.846 157.224 40.3627 157.525 39.6065C157.58 39.4649 157.634 39.3214 157.691 39.1738C158.15 37.9949 158.636 36.8262 159.122 35.6574C159.741 34.1651 160.303 32.6547 160.864 31.1401C161.946 28.2142 163.067 25.3065 164.233 22.4129C164.644 21.3938 165.044 20.3727 165.441 19.3495C165.67 18.7631 165.896 18.1767 166.125 17.5923C166.194 17.4164 166.26 17.2385 166.331 17.0585C166.548 16.5024 166.766 15.9484 166.985 15.3923C167.052 15.2205 167.118 15.0486 167.187 14.8706C167.25 14.7109 167.315 14.5491 167.379 14.3833C167.436 14.2418 167.491 14.1002 167.547 13.9526C168.108 12.792 168.108 12.792 168.826 12.6363ZM172.802 20.6254C172.772 20.7609 172.741 20.8964 172.711 21.0359C172.201 23.2197 171.444 25.3146 170.625 27.3993C170.54 27.6197 170.54 27.6197 170.453 27.8422C170.344 28.1212 170.232 28.4002 170.119 28.6773C169.85 29.3627 169.672 29.8339 169.969 30.5335C170.068 30.4324 170.068 30.4324 170.172 30.3313C170.172 30.398 170.172 30.4648 170.172 30.5335C171.707 30.5335 173.243 30.5335 174.826 30.5335C174.704 29.3263 174.597 28.2688 174.344 27.1081C174.055 25.7251 173.828 24.3359 173.63 22.9366C173.506 22.1137 173.361 21.3877 173.004 20.6254C172.938 20.6254 172.871 20.6254 172.802 20.6254ZM170.374 36.1953C171.183 36.3975 171.183 36.3975 171.183 36.3975L170.374 36.1953Z" fill="#F8FBFC"/>
<path d="M129.455 14.4862C129.653 14.6136 129.852 14.741 130.056 14.8724C130.283 15.018 130.283 15.018 130.511 15.1656C130.448 16.0634 130.386 16.9592 130.323 17.857C130.305 18.1097 130.287 18.3605 130.268 18.6193C130.163 20.0974 130.046 21.5755 129.904 23.0516C129.615 22.8899 129.615 22.8899 129.319 22.7261C127.154 21.5371 125.141 20.6717 122.697 20.2329C122.537 20.2025 122.377 20.1722 122.213 20.1399C120.989 19.9437 120.111 20.1439 118.978 20.6252C118.793 20.702 118.607 20.7809 118.417 20.8617C118.271 20.9285 118.128 20.9972 117.98 21.068C117.201 21.434 117.201 21.434 116.752 21.434C114.983 23.5956 113.943 26.111 114.121 28.9156C114.293 30.3998 114.821 31.7748 115.74 32.9597C117.217 34.0476 118.781 34.2073 120.572 34.1851C120.78 34.1851 120.78 34.1851 120.993 34.1831C121.333 34.181 121.673 34.177 122.013 34.173C122.013 33.7059 122.013 33.2388 122.013 32.7575C120.811 32.6908 119.609 32.6241 118.371 32.5553C118.067 31.9467 118.186 31.3461 118.233 30.6849C118.247 30.42 118.263 30.1571 118.28 29.8862C118.399 28.6143 118.595 27.3485 118.775 26.0847C124.785 26.1838 124.785 26.1838 130.916 26.2869C130.916 29.5445 130.916 29.5445 130.746 31.1722C130.73 31.3502 130.712 31.5281 130.693 31.7101C130.657 32.0801 130.62 32.4481 130.582 32.8182C130.523 33.3823 130.469 33.9465 130.412 34.5106C130.376 34.8726 130.339 35.2345 130.305 35.5945C130.287 35.7623 130.27 35.9301 130.254 36.102C130.026 38.3162 130.026 38.3162 129.477 38.7853C129.293 38.8945 129.109 39.0016 128.919 39.1149C128.716 39.2342 128.514 39.3535 128.306 39.4768C128.099 39.5961 127.891 39.7134 127.678 39.8347C127.407 39.9985 127.407 39.9985 127.128 40.1663C123.132 42.4917 118.945 42.3542 114.603 41.327C111.809 40.5263 109.192 38.2049 107.646 35.7906C107.501 35.2244 107.501 35.2244 107.444 34.7796C107.31 34.7796 107.177 34.7796 107.039 34.7796C105.394 30.9923 105.2 26.9704 106.625 23.0678C107.561 20.7182 108.897 18.779 110.682 16.9855C110.813 16.8459 110.945 16.7084 111.082 16.5649C115.853 11.898 123.878 10.9011 129.455 14.4862ZM120.596 12.5369C121.406 12.7391 121.406 12.7391 121.406 12.7391L120.596 12.5369ZM123.227 12.5369C124.036 12.7391 124.036 12.7391 124.036 12.7391L123.227 12.5369ZM118.371 30.7355C118.573 31.1399 118.573 31.1399 118.573 31.1399L118.371 30.7355Z" fill="#F8FBFC"/>
<path d="M136.829 12.705C137.075 12.705 137.075 12.705 137.328 12.703C137.676 12.701 138.024 12.701 138.373 12.701C138.907 12.701 139.441 12.6969 139.975 12.6929C140.313 12.6929 140.651 12.6929 140.989 12.6929C141.151 12.6909 141.311 12.6888 141.474 12.6888C142.606 12.6929 142.606 12.6929 143.057 13.1438C143.043 13.7262 143.002 14.2822 142.941 14.8585C142.915 15.1234 142.915 15.1234 142.889 15.3923C142.852 15.7745 142.814 16.1567 142.776 16.5388C142.695 17.3436 142.618 18.1504 142.541 18.9572C142.502 19.3717 142.462 19.7842 142.421 20.1988C142.243 22.057 142.081 23.9153 141.932 25.7756C141.907 26.0951 141.881 26.4146 141.855 26.7341C141.258 30.7458 141.258 30.7458 142.45 34.3754C143.403 35.073 144.477 35.3217 145.647 35.2611C146.721 35.0751 147.573 34.5958 148.293 33.7809C149.028 32.7234 149.208 31.769 149.323 30.5012C149.338 30.3394 149.354 30.1776 149.37 30.0098C149.423 29.476 149.471 28.9442 149.52 28.4103C149.554 28.0383 149.59 27.6662 149.625 27.2942C149.888 24.4997 150.123 21.7032 150.333 18.9026C150.444 17.4569 150.572 16.0131 150.738 14.5714C150.768 14.3085 150.798 14.0436 150.831 13.7706C150.948 13.1438 150.948 13.1438 151.353 12.7394C151.913 12.701 152.456 12.6868 153.016 12.6929C153.18 12.6929 153.346 12.6929 153.516 12.6929C153.864 12.6929 154.212 12.6949 154.56 12.6969C155.094 12.701 155.628 12.701 156.163 12.701C156.5 12.703 156.838 12.703 157.176 12.705C157.417 12.705 157.417 12.705 157.662 12.705C158.793 12.7151 158.793 12.7151 159.244 12.9416C159.121 15.358 158.963 17.7703 158.765 20.1826C158.751 20.3423 158.738 20.5001 158.724 20.6638C158.485 23.6019 158.196 26.5319 157.874 29.4618C157.822 29.9148 157.822 29.9148 157.828 30.3313C157.628 30.3313 157.427 30.3313 157.221 30.3313C157.522 30.5315 157.522 30.5315 157.828 30.7357C157.743 31.1017 157.654 31.4697 157.563 31.8357C157.514 32.0379 157.464 32.2422 157.413 32.4524C157.35 32.6203 157.286 32.7881 157.221 32.96C156.921 33.0591 156.921 33.0591 156.614 33.1622C156.681 33.4291 156.747 33.696 156.816 33.971C156.616 34.0701 156.616 34.0701 156.411 34.1732C156.205 34.5756 156.005 34.98 155.804 35.3865C154.795 37.1679 153.844 38.4519 152.162 39.6328C152.021 39.7379 151.877 39.8431 151.731 39.9502C149.058 41.851 145.797 42.4091 142.579 41.9642C139.085 41.2585 136.477 39.2466 134.481 36.351C132.587 33.1157 133.095 29.3668 133.395 25.7938C133.421 25.4642 133.449 25.1346 133.476 24.803C133.686 22.2491 133.927 19.6993 134.18 17.1495C134.196 16.9716 134.214 16.7936 134.233 16.6116C134.281 16.1102 134.332 15.6087 134.382 15.1072C134.405 14.8828 134.405 14.8828 134.427 14.6543C134.49 14.0497 134.568 13.5199 134.761 12.9416C135.41 12.616 136.116 12.705 136.829 12.705ZM157.018 31.1401C157.221 31.5445 157.221 31.5445 157.221 31.5445L157.018 31.1401Z" fill="#F8FBFC"/>
<path d="M87.69 12.6819C87.8721 12.6819 88.0522 12.6819 88.2383 12.6839C88.4285 12.6819 88.6208 12.6819 88.817 12.6799C89.4483 12.6779 90.0796 12.6779 90.713 12.6779C91.15 12.6779 91.5891 12.6758 92.0262 12.6758C92.9448 12.6738 93.8655 12.6738 94.7841 12.6758C95.9638 12.6758 97.1435 12.6738 98.3211 12.6678C99.2276 12.6657 100.132 12.6657 101.037 12.6657C101.472 12.6657 101.907 12.6637 102.342 12.6617C102.949 12.6597 103.556 12.6617 104.165 12.6637C104.436 12.6617 104.436 12.6617 104.711 12.6597C104.96 12.6617 104.96 12.6617 105.213 12.6637C105.357 12.6637 105.5 12.6637 105.648 12.6637C106.028 12.7385 106.028 12.7385 106.635 13.3451C106.435 15.2135 106.235 17.0819 106.028 19.0069C101.955 19.0736 97.882 19.1404 93.6854 19.2091C93.6854 20.3435 93.6854 21.4779 93.6854 22.6466C93.5519 23.047 93.4183 23.4474 93.2807 23.8599C93.6369 23.8679 93.6369 23.8679 94.0011 23.876C94.8813 23.8942 95.7615 23.9144 96.6417 23.9347C97.0221 23.9448 97.4045 23.9529 97.7849 23.961C98.3312 23.9731 98.8796 23.9852 99.4259 23.9994C99.5979 24.0014 99.7699 24.0054 99.9459 24.0095C101.148 24.0398 101.148 24.0398 101.374 24.2643C101.538 26.2964 101.192 28.3185 100.97 30.3304C98.2989 30.3972 95.6279 30.4639 92.876 30.5326C92.8093 32.1341 92.7425 33.7356 92.6737 35.3856C93.1937 35.3836 93.1937 35.3836 93.7259 35.3836C94.8712 35.3795 96.0184 35.3775 97.1637 35.3755C97.8598 35.3755 98.5538 35.3735 99.2478 35.3714C100.047 35.3674 100.846 35.3674 101.644 35.3654C101.895 35.3654 102.145 35.3633 102.402 35.3633C102.633 35.3633 102.864 35.3633 103.102 35.3633C103.408 35.3633 103.408 35.3633 103.72 35.3613C104.207 35.3856 104.207 35.3856 104.612 35.5878C104.584 36.2955 104.553 37.0032 104.523 37.711C104.515 37.9091 104.507 38.1093 104.499 38.3135C104.491 38.5097 104.482 38.7038 104.474 38.906C104.466 39.0839 104.458 39.2619 104.45 39.4439C104.4 40.1839 104.298 40.92 104.207 41.654C97.4632 41.654 90.7191 41.654 83.7706 41.654C83.115 40.3457 83.639 38.2387 83.7827 36.8314C83.805 36.6089 83.8252 36.3865 83.8495 36.158C83.9183 35.4543 83.9891 34.7507 84.0619 34.047C84.1085 33.5718 84.155 33.0986 84.2016 32.6255C84.5557 29.0768 84.5557 29.0768 84.6953 28.0273C84.7681 27.4146 84.7985 26.8464 84.7843 26.2337C84.7722 25.0428 84.8551 23.87 84.9583 22.685C84.9826 22.3817 84.9826 22.3817 85.0069 22.0744C85.0959 21.0532 85.2436 20.1797 85.5917 19.2091C85.5249 19.0757 85.4581 18.9422 85.3893 18.8047C85.4338 17.8584 85.5512 16.9161 85.6544 15.9738C85.6807 15.7089 85.707 15.444 85.7353 15.1711C85.7616 14.9203 85.7879 14.6676 85.8163 14.4067C85.8527 14.0589 85.8527 14.0589 85.8911 13.7031C86.0995 12.5929 86.6843 12.69 87.69 12.6819ZM85.3893 20.6246C85.3893 21.0249 85.3893 21.4253 85.3893 21.8378C85.4561 21.8378 85.5229 21.8378 85.5917 21.8378C85.5917 21.4374 85.5917 21.0371 85.5917 20.6246C85.5249 20.6246 85.4581 20.6246 85.3893 20.6246ZM85.187 23.051C85.3893 23.8599 85.3893 23.8599 85.3893 23.8599L85.187 23.051ZM84.9846 25.0731C85.187 25.8819 85.187 25.8819 85.187 25.8819L84.9846 25.0731ZM83.7706 39.2275C83.9729 40.0363 83.9729 40.0363 83.9729 40.0363L83.7706 39.2275Z" fill="#F8FBFC"/>
<path d="M26.5821 12.6819C26.7643 12.6819 26.9443 12.6819 27.1305 12.6839C27.3207 12.6819 27.5129 12.6819 27.7092 12.6799C28.3405 12.6779 28.9718 12.6779 29.6052 12.6779C30.0422 12.6779 30.4813 12.6758 30.9184 12.6758C31.837 12.6738 32.7577 12.6738 33.6763 12.6758C34.856 12.6758 36.0356 12.6738 37.2133 12.6678C38.1198 12.6657 39.0243 12.6657 39.9287 12.6657C40.3638 12.6657 40.7988 12.6637 41.2339 12.6617C41.8409 12.6597 42.4479 12.6617 43.057 12.6637C43.3281 12.6617 43.3281 12.6617 43.6033 12.6597C43.8522 12.6617 43.8522 12.6617 44.1051 12.6637C44.2488 12.6637 44.3924 12.6637 44.5401 12.6637C45.0399 12.7628 45.222 12.9428 45.5276 13.3451C45.5397 13.9336 45.5397 13.9336 45.4547 14.6433C45.4244 14.8961 45.3961 15.1508 45.3657 15.4117C45.3313 15.6786 45.2969 15.9475 45.2625 16.2144C45.2301 16.4834 45.1978 16.7543 45.1654 17.0253C45.0865 17.6865 45.0055 18.3457 44.9206 19.0069C44.698 19.0089 44.698 19.0089 44.4693 19.011C43.0711 19.0231 41.6709 19.0372 40.2707 19.0554C39.5524 19.0635 38.832 19.0716 38.1137 19.0777C37.2861 19.0837 36.4606 19.0939 35.633 19.106C35.374 19.108 35.115 19.108 34.8479 19.11C34.6091 19.1141 34.3704 19.1181 34.1235 19.1222C33.8078 19.1262 33.8078 19.1262 33.4841 19.1282C33.3182 19.1565 33.1522 19.1828 32.9823 19.2091C32.3914 20.0948 32.5675 20.8894 32.6019 21.9308C32.5776 22.6567 32.4157 23.1804 32.1729 23.8599C32.4036 23.8659 32.6342 23.87 32.873 23.876C33.7269 23.8942 34.5808 23.9144 35.4347 23.9347C35.805 23.9448 36.1753 23.9529 36.5456 23.961C37.0777 23.9731 37.6079 23.9852 38.14 23.9994C38.3059 24.0014 38.4719 24.0054 38.6439 24.0095C39.8154 24.0398 39.8154 24.0398 40.2666 24.2643C40.3496 26.3268 40.0805 28.2477 39.862 30.3304C37.191 30.3972 34.5201 30.4639 31.7682 30.5326C31.7136 31.2464 31.6589 31.9602 31.6043 32.6942C31.4424 34.7405 31.2543 36.7828 31.0479 38.8231C31.0216 39.0819 30.9953 39.3387 30.969 39.6056C30.9447 39.8442 30.9204 40.0828 30.8941 40.3275C30.8718 40.5398 30.8516 40.7521 30.8293 40.9705C30.7565 41.4518 30.7565 41.4518 30.5542 41.654C29.9694 41.6722 29.3907 41.6782 28.8079 41.6742C28.5449 41.6742 28.5449 41.6742 28.2778 41.6742C27.7173 41.6722 27.1568 41.6701 26.5963 41.6661C26.2159 41.6661 25.8375 41.6661 25.4571 41.6641C24.5263 41.6621 23.5935 41.658 22.6627 41.654C22.2176 40.3214 22.4746 38.819 22.6223 37.442C22.6587 37.1003 22.6931 36.7586 22.7275 36.4189C22.7457 36.2409 22.7639 36.065 22.7821 35.883C23.1099 32.7185 23.3831 29.558 23.5875 26.3834C23.7675 23.5849 24.0104 20.7924 24.3827 18.0121C24.4636 17.3771 24.5263 16.7422 24.585 16.1053C24.6012 15.9192 24.6194 15.7352 24.6356 15.5431C24.668 15.1792 24.7003 14.8152 24.7287 14.4512C24.7449 14.2874 24.759 14.1236 24.7752 13.9538C24.7874 13.8062 24.7995 13.6606 24.8116 13.5089C25.014 12.5424 25.7566 12.69 26.5821 12.6819ZM24.4838 19.4113C24.6862 19.8157 24.6862 19.8157 24.6862 19.8157L24.4838 19.4113ZM24.2815 20.4224C24.2815 20.8894 24.2815 21.3565 24.2815 21.8378C24.3483 21.8378 24.415 21.8378 24.4838 21.8378C24.4838 21.3707 24.4838 20.9036 24.4838 20.4224C24.4171 20.4224 24.3503 20.4224 24.2815 20.4224ZM24.0792 22.8488C24.2815 23.4554 24.2815 23.4554 24.2815 23.4554L24.0792 22.8488ZM23.8768 25.0731C24.0792 25.8819 24.0792 25.8819 24.0792 25.8819L23.8768 25.0731ZM23.6745 27.0951C23.6745 27.4288 23.6745 27.7624 23.6745 28.1062C23.7412 28.1062 23.808 28.1062 23.8768 28.1062C23.8768 27.7725 23.8768 27.4389 23.8768 27.0951C23.81 27.0951 23.7433 27.0951 23.6745 27.0951Z" fill="#F8FBFC"/>
<path d="M48.6996 12.7109C48.9404 12.7109 48.9404 12.7109 49.1873 12.7129C49.4341 12.7109 49.4341 12.7109 49.685 12.7109C50.0331 12.7109 50.3831 12.7109 50.7311 12.7129C51.2653 12.7129 51.7995 12.7129 52.3337 12.7109C52.6716 12.7109 53.0095 12.7109 53.3474 12.7129C53.5073 12.7109 53.6671 12.7109 53.8331 12.7109C54.4887 12.7129 55.0168 12.7331 55.644 12.9414C55.5368 14.1627 55.4296 15.384 55.3203 16.6074C55.2839 17.0199 55.2475 17.4344 55.211 17.8469C55.0249 19.9701 54.8326 22.0892 54.6161 24.2083C54.4684 25.6541 54.3531 27.0978 54.2661 28.5497C53.9788 32.9274 53.4729 37.291 53.0136 41.6546C50.3426 41.6546 47.6717 41.6546 44.9198 41.6546C44.6163 41.048 44.7276 40.4454 44.7681 39.7842C44.7782 39.6265 44.7863 39.4688 44.7964 39.305C44.9097 37.5114 45.108 35.7239 45.2942 33.9344C45.4702 32.2096 45.6037 30.4848 45.7049 28.7519C45.8749 25.9291 46.1501 23.1204 46.4374 20.3098C46.4597 20.0934 46.4819 19.8771 46.5042 19.6566C47.2083 12.7169 47.2083 12.7169 48.6996 12.7109ZM46.1339 25.4782C46.3362 26.287 46.3362 26.287 46.3362 26.287L46.1339 25.4782ZM45.9315 27.7024C45.9315 28.0361 45.9315 28.3697 45.9315 28.7134C45.9983 28.7134 46.0651 28.7134 46.1339 28.7134C46.1339 28.3798 46.1339 28.0462 46.1339 27.7024C46.0671 27.7024 46.0003 27.7024 45.9315 27.7024Z" fill="#F8FBFC"/>
<path d="M87.69 12.6819C87.8721 12.6819 88.0522 12.6819 88.2383 12.6839C88.4285 12.6819 88.6208 12.6819 88.817 12.6799C89.4483 12.6779 90.0796 12.6779 90.713 12.6779C91.15 12.6779 91.5891 12.6758 92.0262 12.6758C92.9448 12.6738 93.8655 12.6738 94.7841 12.6758C95.9638 12.6758 97.1435 12.6738 98.3211 12.6678C99.2276 12.6657 100.132 12.6657 101.037 12.6657C101.472 12.6657 101.907 12.6637 102.342 12.6617C102.949 12.6597 103.556 12.6617 104.165 12.6637C104.436 12.6617 104.436 12.6617 104.711 12.6597C104.96 12.6617 104.96 12.6617 105.213 12.6637C105.357 12.6637 105.5 12.6637 105.648 12.6637C106.028 12.7385 106.028 12.7385 106.635 13.3451C106.435 15.2135 106.235 17.0819 106.028 19.0069C101.955 19.0736 97.882 19.1404 93.6854 19.2091C93.6854 20.3435 93.6854 21.4779 93.6854 22.6466C93.4851 22.5799 93.2848 22.5132 93.0784 22.4444C92.5159 22.4323 91.9574 22.4303 91.3949 22.4383C91.059 22.4424 90.7211 22.4444 90.3832 22.4464C89.851 22.4525 89.3188 22.4565 88.7867 22.4646C88.2747 22.4707 87.7608 22.4747 87.2468 22.4768C87.0081 22.4808 87.0081 22.4808 86.7632 22.4849C86.3727 22.4869 85.9822 22.4687 85.5917 22.4444C85.187 22.04 85.187 22.04 85.1364 21.2817C85.1506 20.5295 85.3387 19.9189 85.5917 19.2091C85.5249 19.0757 85.4581 18.9422 85.3893 18.8047C85.4338 17.8584 85.5512 16.9161 85.6544 15.9738C85.6807 15.7089 85.707 15.444 85.7353 15.1711C85.7616 14.9203 85.7879 14.6676 85.8163 14.4067C85.8405 14.1742 85.8669 13.9417 85.8911 13.7031C86.0995 12.5929 86.6843 12.69 87.69 12.6819Z" fill="#F8FBFC"/>
<path d="M26.5822 12.6819C26.7643 12.6819 26.9444 12.6819 27.1305 12.6839C27.3207 12.6819 27.5129 12.6819 27.7092 12.6799C28.3405 12.6779 28.9718 12.6779 29.6052 12.6779C30.0422 12.6779 30.4813 12.6758 30.9184 12.6758C31.837 12.6738 32.7577 12.6738 33.6763 12.6758C34.856 12.6758 36.0357 12.6738 37.2133 12.6678C38.1198 12.6657 39.0243 12.6657 39.9288 12.6657C40.3638 12.6657 40.7988 12.6637 41.2339 12.6617C41.8409 12.6597 42.4479 12.6617 43.057 12.6637C43.3281 12.6617 43.3281 12.6617 43.6033 12.6597C43.8522 12.6617 43.8522 12.6617 44.1051 12.6637C44.2488 12.6637 44.3925 12.6637 44.5402 12.6637C45.04 12.7628 45.2221 12.9428 45.5276 13.3451C45.5397 13.9336 45.5397 13.9336 45.4548 14.6433C45.4244 14.8961 45.3961 15.1508 45.3657 15.4117C45.3313 15.6786 45.2969 15.9475 45.2625 16.2144C45.2302 16.4834 45.1978 16.7543 45.1654 17.0253C45.0865 17.6865 45.0056 18.3457 44.9206 19.0069C32.2862 19.2698 32.2862 19.2698 27.6445 19.1343C27.4118 19.1282 27.4118 19.1282 27.173 19.1201C24.7267 19.0494 24.7267 19.0494 24.4839 18.8047C24.496 18.1961 24.5223 17.5935 24.5587 16.9849C24.5688 16.819 24.5769 16.6512 24.5871 16.4793C24.6336 15.6361 24.6923 14.7929 24.7692 13.9518C24.7894 13.7334 24.7894 13.7334 24.8096 13.5089C25.018 12.5424 25.7546 12.69 26.5822 12.6819Z" fill="#F9FCFD"/>
<path d="M208.616 35.1838C209.509 36.5224 210.227 37.948 210.842 39.4302C211.057 39.8508 211.273 40.2693 211.496 40.6838C211.652 41.0478 211.652 41.0478 211.652 41.6544C210.348 41.705 209.045 41.7414 207.742 41.7656C207.299 41.7758 206.856 41.7899 206.413 41.8061C205.773 41.8324 205.136 41.8425 204.499 41.8526C204.3 41.8627 204.104 41.8728 203.9 41.8829C203.317 41.8849 202.89 41.8607 202.344 41.6544C201.793 41.0417 201.464 40.3805 201.13 39.6324C201.045 39.4585 200.96 39.2846 200.871 39.1066C200.646 38.6456 200.438 38.1805 200.231 37.7114C200.158 37.5496 200.086 37.3899 200.009 37.2241C199.942 37.0704 199.873 36.9147 199.802 36.757C199.742 36.6195 199.681 36.482 199.618 36.3405C199.511 35.9927 199.511 35.9927 199.713 35.5882C200.697 35.3456 201.672 35.3618 202.676 35.3739C202.839 35.3739 203.005 35.3759 203.173 35.3759C203.693 35.378 204.213 35.382 204.733 35.386C205.421 35.3921 206.111 35.3962 206.799 35.3982C206.957 35.4002 207.117 35.4022 207.281 35.4042C207.659 35.4063 208.036 35.3962 208.414 35.386C208.481 35.3193 208.548 35.2526 208.616 35.1838Z" fill="#F8FBFC"/>
<path d="M72.0794 35.3521C72.2373 35.3521 72.3951 35.35 72.559 35.35C72.8929 35.348 73.2267 35.348 73.5606 35.348C74.0685 35.348 74.5784 35.344 75.0883 35.3399C75.4141 35.3399 75.7378 35.3399 76.0636 35.3399C76.2153 35.3379 76.3671 35.3359 76.5229 35.3359C77.9555 35.3419 77.9555 35.3419 78.5099 35.7908C78.8418 36.353 78.8418 36.353 79.1635 37.0607C79.2505 37.2487 79.2505 37.2487 79.3375 37.4388C79.5196 37.8372 79.6977 38.2355 79.8757 38.6339C79.9971 38.9028 80.1206 39.1717 80.244 39.4407C81.1404 41.4081 81.1404 41.4081 81.1404 41.6548C78.002 41.6548 74.8637 41.6548 71.6302 41.6548C69.1374 36.6745 69.1374 36.6745 68.9998 36.1953C69.4045 35.5886 69.4045 35.5886 69.8314 35.4511C70.5821 35.3682 71.3247 35.3541 72.0794 35.3521Z" fill="#F8FBFC"/>
<path d="M206.795 31.1397C207.119 31.6674 207.119 31.6674 207.414 32.3024C207.562 32.6138 207.562 32.6138 207.714 32.9312C207.811 33.1415 207.908 33.3498 208.009 33.5662C208.127 33.7764 208.242 33.9847 208.363 34.2011C208.641 34.832 208.612 34.9634 208.414 35.5882C208.196 35.5862 207.975 35.5862 207.748 35.5842C206.931 35.5821 206.111 35.5781 205.294 35.5781C204.94 35.5761 204.586 35.5741 204.234 35.572C203.724 35.57 203.214 35.57 202.704 35.568C202.546 35.568 202.39 35.566 202.228 35.566C201.302 35.566 200.426 35.6367 199.511 35.7904C199.511 35.657 199.511 35.5235 199.511 35.386C199.377 35.386 199.244 35.386 199.106 35.386C199.058 35.2424 199.009 35.0968 198.959 34.9492C198.558 33.8048 198.129 32.7755 197.487 31.7463C198.024 31.2105 198.287 31.2853 199.033 31.2731C199.383 31.263 199.383 31.263 199.742 31.2549C199.986 31.2489 200.231 31.2448 200.484 31.2408C202.172 31.2084 203.774 31.1093 205.432 30.7798C206.047 30.7312 206.296 30.7899 206.795 31.1397Z" fill="#808384"/>
<path d="M76.0812 31.1397C76.8704 32.0658 77.2204 32.9717 77.2953 34.1728C77.4289 34.1728 77.5624 34.1728 77.7 34.1728C77.9165 34.5691 78.1188 34.9756 78.307 35.3861C78.2403 35.5195 78.1735 35.653 78.1047 35.7905C77.9711 35.7237 77.8376 35.657 77.7 35.5883C77.1699 35.566 76.6458 35.5559 76.1177 35.5539C75.8809 35.5539 75.8809 35.5539 75.6381 35.5519C75.3042 35.5519 74.9704 35.5498 74.6345 35.5498C74.1266 35.5498 73.6187 35.5458 73.1088 35.5438C72.7851 35.5418 72.4593 35.5418 72.1335 35.5418C71.9818 35.5397 71.832 35.5397 71.6762 35.5377C70.711 35.5418 69.9158 35.6894 68.9992 35.9927C68.9324 35.7258 68.8657 35.4588 68.7969 35.1838C68.6633 35.1838 68.5298 35.1838 68.3922 35.1838C68.3578 35.0686 68.3234 34.9533 68.287 34.8361C67.9571 33.7805 67.5525 32.8908 66.9758 31.9486C66.909 31.8151 66.8422 31.6816 66.7734 31.5441C67.3056 31.2772 67.7245 31.3055 68.3193 31.2914C68.6694 31.2813 68.6694 31.2813 69.0275 31.2712C69.5132 31.259 70.0008 31.2489 70.4885 31.2368C71.9312 31.1943 73.301 31.0609 74.7175 30.7798C75.3285 30.7313 75.5794 30.802 76.0812 31.1397Z" fill="#808384"/>
<path d="M118.283 19.4497C118.489 19.4578 118.489 19.4578 118.699 19.4679C119.509 19.5265 120.002 19.66 120.597 20.2201C120.417 20.2747 120.235 20.3273 120.049 20.3839C119.812 20.4546 119.576 20.5254 119.333 20.6002C118.981 20.7054 118.981 20.7054 118.62 20.8125C118.096 20.9864 117.645 21.1846 117.158 21.4333C117.024 21.4333 116.89 21.4333 116.753 21.4333C115.798 22.6 115.175 23.9204 114.527 25.2752C114.327 25.2085 114.126 25.1418 113.92 25.073C113.463 25.0447 113.005 25.0285 112.546 25.0164C112.415 25.0124 112.281 25.0083 112.143 25.0063C111.575 24.9901 111.008 24.976 110.44 24.9618C110.025 24.9517 109.61 24.9396 109.195 24.9274C108.946 24.9214 108.7 24.9153 108.443 24.9092C107.85 24.8708 107.85 24.8708 107.445 24.6686C107.672 23.4271 108.59 22.6081 109.56 21.8579C112.226 20.0745 115.092 19.292 118.283 19.4497Z" fill="#7F8283"/>
<path d="M85.5914 19.0074C86.68 19.0033 87.7666 18.9993 88.8552 18.9972C89.2235 18.9952 89.5938 18.9932 89.9641 18.9912C90.4962 18.9892 91.0284 18.9892 91.5585 18.9871C91.7244 18.9871 91.8904 18.9851 92.0624 18.9851C93.2339 18.9851 93.2339 18.9851 93.6852 19.2096C93.6852 20.3439 93.6852 21.4783 93.6852 22.6471C93.4848 22.5803 93.2845 22.5136 93.0781 22.4449C92.5156 22.4327 91.9571 22.4307 91.3946 22.4388C91.0587 22.4428 90.7208 22.4449 90.3829 22.4469C89.8507 22.4509 89.3186 22.457 88.7864 22.4651C88.2745 22.4711 87.7605 22.4732 87.2466 22.4772C87.0867 22.4792 86.9269 22.4833 86.763 22.4853C86.3725 22.4873 85.9819 22.4671 85.5914 22.4449C85.0795 21.9333 85.1382 21.5996 85.1321 20.9C85.207 20.2448 85.4053 19.6382 85.5914 19.0074Z" fill="#808384"/>
<path d="M218.329 18.9805C218.57 18.9805 218.57 18.9805 218.815 18.9805C219.152 18.9805 219.492 18.9805 219.83 18.9805C220.35 18.9825 220.87 18.9805 221.388 18.9805C221.718 18.9805 222.048 18.9805 222.376 18.9805C222.532 18.9805 222.687 18.9805 222.849 18.9785C223.948 18.9846 223.948 18.9846 224.399 19.209C224.332 20.3434 224.266 21.4778 224.197 22.6465C224.098 22.4463 224.098 22.4463 223.995 22.2421C221.39 22.3088 218.786 22.3755 216.103 22.4443C215.866 20.3171 215.866 20.3171 216.305 19.209C216.943 18.8915 217.629 18.9785 218.329 18.9805Z" fill="#7F8283"/>
<path d="M24.4836 18.8052C28.2897 18.9063 28.2897 18.9063 32.1727 19.0074C32.1727 19.1408 32.1727 19.2743 32.1727 19.4118C32.373 19.4785 32.5733 19.5452 32.7797 19.614C32.7129 19.6807 32.6461 19.7475 32.5773 19.8162C32.5632 20.2914 32.5612 20.7686 32.5652 21.2438C32.5672 21.5046 32.5692 21.7655 32.5692 22.0344C32.5733 22.2366 32.5753 22.4388 32.5773 22.6471C32.377 22.5804 32.1767 22.5136 31.9703 22.4449C31.4037 22.4267 30.8412 22.4206 30.2726 22.4247C30.1087 22.4247 29.9428 22.4267 29.7729 22.4267C29.2447 22.4267 28.7166 22.4287 28.1885 22.4327C27.8304 22.4327 27.4722 22.4348 27.1161 22.4348C26.2379 22.4368 25.3618 22.4408 24.4836 22.4449C24.4451 21.9515 24.4067 21.4601 24.3703 20.9668C24.3521 20.7565 24.3521 20.7565 24.3359 20.5441C24.2873 19.891 24.2752 19.432 24.4836 18.8052ZM24.4836 19.4118C24.6859 19.8162 24.6859 19.8162 24.6859 19.8162L24.4836 19.4118Z" fill="#808384"/>
<path d="M157.423 30.5331C157.557 30.5998 157.691 30.6665 157.828 30.7353C157.743 31.1033 157.654 31.4693 157.563 31.8353C157.512 32.0395 157.464 32.2437 157.413 32.454C157.351 32.6198 157.286 32.7877 157.221 32.9596C157.021 33.0263 156.82 33.093 156.614 33.1618C156.681 33.4287 156.748 33.6956 156.816 33.9706C156.683 34.0373 156.549 34.104 156.412 34.1728C156.205 34.5752 156.005 34.9796 155.805 35.386C155.606 35.7419 155.404 36.0958 155.198 36.4476C155.096 36.6195 154.997 36.7914 154.894 36.9693C154.591 37.4081 154.591 37.4081 153.984 37.8125C152.915 37.1452 151.847 36.4779 150.746 35.7904C150.847 35.4891 150.847 35.4891 150.948 35.1838C151.426 35.0018 151.887 34.8542 152.377 34.7167C154.212 34.1505 155.386 33.3357 156.568 31.811C156.65 31.7221 156.731 31.6351 156.816 31.5441C156.95 31.5441 157.083 31.5441 157.221 31.5441C157.288 31.2105 157.355 30.8768 157.423 30.5331Z" fill="#7F8283"/>
<path d="M168.755 32.5552C168.888 32.5552 169.022 32.5552 169.159 32.5552C169.706 33.825 170.11 35.0383 170.373 36.3971C170.641 36.4638 170.908 36.5305 171.183 36.5993C168.619 36.6741 168.619 36.6741 167.541 36.1949C167.897 34.9594 168.289 33.7543 168.755 32.5552Z" fill="#808384"/>
<path d="M119.18 25.8823C122.92 25.8823 126.659 25.8823 130.512 25.8823C130.512 25.9491 130.512 26.0158 130.512 26.0845C126.772 26.0845 123.033 26.0845 119.18 26.0845C119.18 26.0178 119.18 25.9511 119.18 25.8823Z" fill="#F9FCFD"/>
<path d="M105.623 27.9044C105.69 27.9044 105.757 27.9044 105.826 27.9044C105.826 28.505 105.826 29.1055 105.826 29.7243C105.759 29.7243 105.692 29.7243 105.623 29.7243C105.623 29.1237 105.623 28.5232 105.623 27.9044Z" fill="#F9FCFD"/>
<path d="M215.901 19.2095C216.103 20.0184 216.103 20.0184 216.103 20.0184L215.901 19.2095Z" fill="#808384"/>
</svg>
