<svg width="85" height="84" viewBox="0 0 85 84" fill="none" xmlns="http://www.w3.org/2000/svg">
<path fill-rule="evenodd" clip-rule="evenodd" d="M35.0118 39.6952C36.7509 38.8204 38.0658 37.846 38.9668 36.7931C40.5698 34.8967 41.3608 32.3823 41.3608 29.2654C41.3608 26.2323 40.5698 23.6393 38.9878 21.4653C36.3476 17.9241 31.8792 16.1116 25.5616 16.0173H0.532227V67.108H23.8696C26.4993 67.108 28.9352 66.8828 31.1877 66.4218C33.4402 65.9556 35.389 65.1017 37.0391 63.855C38.5058 62.7706 39.7316 61.4243 40.706 59.8371C42.2461 57.4378 43.0162 54.7191 43.0162 51.6913C43.0162 48.7577 42.3404 46.259 40.9993 44.2055C39.6426 42.152 37.652 40.6486 35.0118 39.6952ZM10.8575 24.8913H22.1306C24.6084 24.8913 26.6514 25.1585 28.2544 25.6875C30.1088 26.4576 31.036 28.0239 31.036 30.4126C31.036 32.5552 30.3288 34.0534 28.9302 34.8968C27.521 35.7401 25.6928 36.1645 23.4507 36.1645H10.8575V24.8913ZM23.435 58.2446C25.6823 58.2446 27.4372 57.946 28.684 57.3436C30.9574 56.2225 32.0889 54.1062 32.0889 50.9631C32.0889 48.2967 30.9941 46.4738 28.794 45.4784C27.5577 44.9284 25.829 44.6351 23.6079 44.6193H10.8575V58.2446H23.435Z" fill="#0057FF"/>
<rect x="54.0903" y="18.4006" width="22.1954" height="6.35949" fill="#0057FF"/>
<path fill-rule="evenodd" clip-rule="evenodd" d="M80.9377 35.6877C82.5197 37.935 83.536 40.5385 83.997 43.4983C84.2694 45.2269 84.3741 47.7362 84.3322 50.9997H56.4269C56.5946 54.7871 57.9147 57.4483 60.4396 58.9674C61.9692 59.9156 63.8027 60.3923 65.9662 60.3923C68.2397 60.3923 70.0941 59.8161 71.519 58.6636C72.3047 58.035 72.991 57.1706 73.5829 56.0653H83.8084C83.536 58.3021 82.2945 60.5809 80.0996 62.8963C76.6684 66.5632 71.8647 68.4019 65.6885 68.4019C60.5863 68.4019 56.0917 66.8566 52.1995 63.7554C48.2916 60.6595 46.3481 55.6148 46.3481 48.6319C46.3481 42.0839 48.1083 37.0602 51.6233 33.5661C55.1488 30.0826 59.7062 28.3277 65.3166 28.3277C68.6588 28.3224 71.6604 28.9144 74.3268 30.0983C77.0036 31.2769 79.2038 33.1418 80.9377 35.6877ZM59.3499 38.6318C57.9355 40.0724 57.045 42.0211 56.6783 44.4779H73.939C73.7557 41.8534 72.8599 39.8681 71.2727 38.5008C69.6645 37.1441 67.6896 36.4683 65.327 36.4683C62.7654 36.4735 60.7643 37.1964 59.3499 38.6318Z" fill="#0057FF"/>
</svg>
