<svg width="85" height="85" viewBox="0 0 85 85" fill="none" xmlns="http://www.w3.org/2000/svg">
<path fill-rule="evenodd" clip-rule="evenodd" d="M81.8245 14.9678C82.8604 17.6331 83.5689 20.6795 83.7729 25.1403C83.9763 29.6095 84.0249 31.0368 84.0249 42.4186C84.0249 53.7997 83.9763 55.227 83.7729 59.6968C83.5689 64.157 82.861 67.2034 81.8245 69.8693C79.6478 75.4985 75.1977 79.9485 69.5686 82.1252C66.9027 83.1618 63.8569 83.8697 59.396 84.0737C54.9268 84.2776 53.4989 84.3256 42.1178 84.3256C30.7367 84.3256 29.3094 84.2776 24.8396 84.0737C20.3787 83.8697 17.3323 83.1618 14.667 82.1252C11.8707 81.0733 9.33713 79.4235 7.24418 77.2915C5.11222 75.1986 3.46241 72.665 2.4105 69.8693C1.37457 67.2034 0.666047 64.157 0.462699 59.6968C0.258072 55.2276 0.209473 53.7997 0.209473 42.4179C0.209473 31.0368 0.258072 29.6095 0.462699 25.1397C0.665408 20.6795 1.37329 17.6331 2.40858 14.9672C3.46113 12.1708 5.11158 9.63789 7.24354 7.54493C9.33713 5.41297 11.87 3.76316 14.6664 2.71125C17.3323 1.67532 20.3781 0.9668 24.8389 0.762812C29.3081 0.559463 30.736 0.510864 42.1172 0.510864C53.4983 0.510864 54.9262 0.559463 59.3954 0.764091C63.8563 0.9668 66.902 1.67468 69.5679 2.70997C72.3643 3.76252 74.8978 5.41297 76.9908 7.54493C79.1227 9.63853 80.7726 12.1714 81.8245 14.9678ZM74.7863 67.1349C75.3599 65.6584 76.0429 63.4395 76.229 59.3533C76.431 54.934 76.4732 53.6091 76.4732 42.4185C76.4732 31.2286 76.4304 29.903 76.229 25.4843C76.0429 21.3981 75.3599 19.1792 74.7857 17.7027C74.1143 15.8822 73.0432 14.2355 71.6511 12.8837C70.2992 11.4923 68.6526 10.4212 66.8327 9.74909C65.3556 9.1755 63.1373 8.49255 59.0511 8.30647C54.6319 8.1044 53.3063 8.06156 42.1169 8.06156C30.927 8.06156 29.6014 8.1044 25.1827 8.30583C21.0966 8.49255 18.8776 9.17486 17.4011 9.74909C15.5806 10.4205 13.934 11.4916 12.5822 12.8837C11.1907 14.2355 10.119 15.8822 9.44688 17.7027C8.87328 19.1792 8.19098 21.3981 8.00426 25.4843C7.80283 29.9036 7.75998 31.2286 7.75998 42.4191C7.75998 53.6091 7.80283 54.9347 8.00426 59.3533C8.19034 63.4395 8.87328 65.6584 9.44688 67.1349C10.119 68.9555 11.19 70.6014 12.5822 71.9533C13.934 73.3454 15.5806 74.4165 17.4005 75.0885C18.8776 75.6621 21.0966 76.3451 25.1821 76.5312C29.6008 76.7332 30.9257 76.7754 42.1169 76.7754C53.3075 76.7754 54.6331 76.7332 59.0511 76.5312C63.1373 76.3451 65.3562 75.6621 66.8327 75.0885C70.4879 73.6785 73.3763 70.7901 74.7863 67.1349Z" fill="url(#paint0_linear_109_1435)"/>
<path fill-rule="evenodd" clip-rule="evenodd" d="M20.5967 42.4185C20.5967 30.5335 30.2314 20.8981 42.1164 20.8981C54.0021 20.8981 63.6369 30.5335 63.6369 42.4185C63.6369 54.3035 54.0021 63.9382 42.1164 63.9382C30.2314 63.9382 20.5967 54.3035 20.5967 42.4185ZM28.148 42.4179C28.1474 50.1329 34.402 56.3869 42.1164 56.3875C49.8315 56.3875 56.0861 50.1329 56.0861 42.4179C56.0861 34.7034 49.8321 28.4495 42.1171 28.4488C34.402 28.4488 28.148 34.7034 28.148 42.4179Z" fill="url(#paint1_linear_109_1435)"/>
<path d="M69.5156 20.0483C69.5156 22.8255 67.2641 25.077 64.4869 25.077C61.7091 25.077 59.4575 22.8255 59.4575 20.0483C59.4575 17.2705 61.7091 15.0189 64.4869 15.0189C67.2641 15.0189 69.5156 17.2705 69.5156 20.0483Z" fill="url(#paint2_linear_109_1435)"/>
<defs>
<linearGradient id="paint0_linear_109_1435" x1="42.1174" y1="112.166" x2="111.865" y2="42.4171" gradientUnits="userSpaceOnUse">
<stop stop-color="#FFD600"/>
<stop offset="0.5" stop-color="#FF0100"/>
<stop offset="1" stop-color="#D800B9"/>
</linearGradient>
<linearGradient id="paint1_linear_109_1435" x1="42.1168" y1="72.8522" x2="72.5508" y2="42.4182" gradientUnits="userSpaceOnUse">
<stop stop-color="#FF6400"/>
<stop offset="0.5" stop-color="#FF0100"/>
<stop offset="1" stop-color="#FD0056"/>
</linearGradient>
<linearGradient id="paint2_linear_109_1435" x1="64.4867" y1="27.1598" x2="71.5985" y2="20.048" gradientUnits="userSpaceOnUse">
<stop stop-color="#F30072"/>
<stop offset="1" stop-color="#E50097"/>
</linearGradient>
</defs>
</svg>
