<svg width="613" height="380" viewBox="0 0 613 380" fill="none" xmlns="http://www.w3.org/2000/svg">
<g clip-path="url(#clip0_38_298)">
<path d="M223.595 267.211C222.888 267.212 222.21 267.492 221.71 267.991C221.21 268.489 220.929 269.165 220.928 269.87V376.076C220.929 376.781 221.21 377.457 221.71 377.955C222.21 378.454 222.888 378.734 223.595 378.735H241.678C242.385 378.734 243.063 378.454 243.563 377.955C244.063 377.457 244.344 376.781 244.345 376.076V269.87C244.344 269.165 244.063 268.489 243.563 267.991C243.063 267.492 242.385 267.212 241.678 267.211H223.595Z" fill="#3F3D56"/>
<path d="M373.972 267.211C373.265 267.212 372.587 267.492 372.087 267.991C371.587 268.489 371.306 269.165 371.305 269.87V376.076C371.306 376.781 371.587 377.457 372.087 377.955C372.587 378.454 373.265 378.734 373.972 378.735H392.055C392.762 378.734 393.44 378.454 393.94 377.955C394.44 377.457 394.721 376.781 394.722 376.076V269.87C394.721 269.165 394.44 268.489 393.94 267.991C393.44 267.492 392.762 267.212 392.055 267.211H373.972Z" fill="#3F3D56"/>
<path d="M458.457 182.83L319.804 172.157L430.421 190.962L456.928 186.388L458.457 182.83Z" fill="#3F3D56"/>
<path d="M431.44 189.289L457.948 184.715L458.208 184.109L459.477 184.207L457.948 187.764L431.44 192.338L320.824 172.157L353.605 176.057L431.44 189.289Z" fill="#40B59F"/>
<path d="M144.449 182.83L5.7959 172.157L116.413 190.962L142.92 186.388L144.449 182.83Z" fill="#3F3D56"/>
<path d="M114.884 189.289L141.39 184.715L141.651 184.109L142.92 184.207L141.39 187.764L114.884 192.338L4.26685 172.157L37.0479 176.057L114.884 189.289Z" fill="#40B59F"/>
<path d="M481.906 238.227L470.182 238.735L362.771 283.916L356.624 289.049L337.136 305.312H275.965L257.543 289.049L250.539 282.864L147.508 239.243L138.332 238.227L168.917 223.488H169.08C176.013 216.927 236.052 211.799 309.099 211.799C382.147 211.799 442.186 216.927 449.119 223.488H449.791L481.906 238.227Z" fill="#3F3D56"/>
<path d="M168.077 224.241C168.295 223.632 168.406 222.99 168.408 222.344V198.205C168.408 196.688 167.803 195.234 166.728 194.161C165.652 193.089 164.193 192.486 162.672 192.486H160.343C162.255 190.562 163.553 188.117 164.074 185.459C164.595 182.8 164.315 180.048 163.27 177.548C162.224 175.048 160.46 172.912 158.199 171.41C155.939 169.908 153.283 169.106 150.566 169.106C147.849 169.106 145.193 169.908 142.933 171.41C140.672 172.912 138.908 175.048 137.863 177.548C136.817 180.048 136.537 182.8 137.058 185.459C137.579 188.117 138.877 190.562 140.789 192.486H138.461C137.707 192.486 136.961 192.634 136.266 192.922C135.57 193.209 134.937 193.63 134.405 194.161C133.872 194.692 133.45 195.323 133.161 196.016C132.873 196.71 132.725 197.454 132.725 198.205V222.344C132.724 223.332 132.983 224.303 133.474 225.162C131.742 225.465 130.011 225.793 128.28 226.173C127.226 226.408 126.283 226.995 125.608 227.836C124.933 228.678 124.567 229.723 124.569 230.801V236.536C124.569 237.793 125.07 238.999 125.961 239.888C126.853 240.776 128.062 241.276 129.323 241.276H183.19V227.046C178.216 225.797 173.169 224.86 168.077 224.241Z" fill="#3F3D56"/>
<path d="M486.86 226.173C485.129 225.793 483.398 225.465 481.667 225.162C482.158 224.303 482.416 223.332 482.416 222.344V198.205C482.416 197.454 482.267 196.71 481.979 196.017C481.691 195.323 481.268 194.692 480.736 194.161C480.203 193.63 479.571 193.209 478.875 192.922C478.179 192.634 477.433 192.486 476.68 192.486H474.351C476.263 190.562 477.561 188.117 478.082 185.459C478.603 182.8 478.323 180.048 477.278 177.548C476.232 175.048 474.468 172.912 472.208 171.41C469.947 169.908 467.291 169.106 464.574 169.106C461.858 169.106 459.202 169.908 456.941 171.41C454.68 172.912 452.916 175.048 451.871 177.548C450.825 180.048 450.545 182.8 451.066 185.459C451.587 188.117 452.885 190.562 454.797 192.486H452.469C451.715 192.486 450.97 192.634 450.274 192.922C449.578 193.209 448.945 193.63 448.413 194.161C447.88 194.692 447.458 195.323 447.17 196.017C446.881 196.71 446.733 197.454 446.733 198.205V222.344C446.734 222.99 446.846 223.632 447.063 224.242C441.972 224.86 436.924 225.797 431.95 227.046V241.276H485.817C487.078 241.276 488.288 240.777 489.179 239.888C490.071 238.999 490.572 237.793 490.572 236.536V230.801C490.574 229.723 490.207 228.678 489.532 227.836C488.857 226.995 487.915 226.408 486.86 226.173Z" fill="#3F3D56"/>
<path d="M470.691 182.83L609.344 172.157L498.728 190.962L472.221 186.388L470.691 182.83Z" fill="#3F3D56"/>
<path d="M317.306 300.738H295.796C294.999 300.738 294.21 300.895 293.474 301.199C292.738 301.503 292.069 301.948 291.506 302.51C290.942 303.071 290.496 303.738 290.191 304.472C289.886 305.206 289.729 305.992 289.729 306.787V311.461C289.73 312.689 290.105 313.887 290.806 314.897C291.507 315.907 292.499 316.68 293.651 317.113C292.762 318.178 292.276 319.52 292.278 320.905V322.246C292.277 323.201 292.509 324.143 292.953 324.99C293.397 325.838 294.039 326.565 294.826 327.111V344.954H318.275V327.111C319.062 326.565 319.705 325.838 320.149 324.99C320.592 324.143 320.824 323.202 320.824 322.246V320.905C320.826 319.52 320.339 318.178 319.45 317.113C320.602 316.68 321.595 315.907 322.295 314.897C322.996 313.887 323.372 312.689 323.373 311.461V306.787C323.373 305.993 323.216 305.206 322.911 304.472C322.606 303.738 322.159 303.071 321.596 302.51C321.032 301.948 320.363 301.503 319.627 301.199C318.891 300.895 318.102 300.738 317.306 300.738Z" fill="#3F3D56"/>
<path d="M284.691 342.429C283.734 342.43 282.816 342.81 282.138 343.485C281.461 344.16 281.08 345.075 281.079 346.03V374.879C281.08 375.834 281.461 376.749 282.138 377.425C282.815 378.1 283.734 378.48 284.691 378.481H328.41C329.368 378.48 330.286 378.1 330.963 377.425C331.64 376.749 332.021 375.834 332.022 374.879V346.03C332.021 345.075 331.64 344.16 330.963 343.485C330.286 342.81 329.368 342.43 328.41 342.429H284.691Z" fill="#40B59F"/>
<path d="M356.624 289.049L337.136 305.312H275.966L257.543 289.049H275.864L276.664 285.07C276.898 283.899 277.532 282.846 278.458 282.089C279.384 281.332 280.544 280.918 281.741 280.917H332.89C334.087 280.918 335.247 281.332 336.173 282.089C337.098 282.846 337.732 283.899 337.967 285.07L338.767 289.049H356.624Z" fill="#40B59F"/>
<path d="M306.551 374.685C314.434 374.685 320.824 368.314 320.824 360.455C320.824 352.595 314.434 346.224 306.551 346.224C298.668 346.224 292.278 352.595 292.278 360.455C292.278 368.314 298.668 374.685 306.551 374.685Z" fill="#3F3D56"/>
<path d="M306.551 368.586C311.055 368.586 314.707 364.946 314.707 360.455C314.707 355.964 311.055 352.323 306.551 352.323C302.046 352.323 298.395 355.964 298.395 360.455C298.395 364.946 302.046 368.586 306.551 368.586Z" fill="#E6E6E6"/>
<path d="M311.481 353.987C312.677 355.551 313.264 357.494 313.132 359.456C313 361.418 312.159 363.265 310.765 364.656C309.37 366.046 307.517 366.885 305.549 367.016C303.581 367.147 301.632 366.563 300.064 365.37C300.767 366.295 301.661 367.058 302.685 367.61C303.709 368.161 304.84 368.488 306.001 368.567C307.163 368.646 308.327 368.477 309.417 368.07C310.507 367.662 311.497 367.027 312.32 366.207C313.143 365.386 313.78 364.399 314.189 363.312C314.597 362.226 314.767 361.064 314.688 359.907C314.608 358.749 314.281 357.622 313.728 356.601C313.174 355.579 312.408 354.688 311.481 353.987Z" fill="white"/>
<path d="M490.826 232.235H124.824V234.562H490.826V232.235Z" fill="#E6E6E6"/>
<path d="M499.748 189.289L473.24 184.715L472.98 184.109L471.711 184.207L473.24 187.764L499.748 192.338L610.364 172.157L577.583 176.057L499.748 189.289Z" fill="#40B59F"/>
<path d="M156.683 182.83L295.336 172.157L184.719 190.962L158.213 186.388L156.683 182.83Z" fill="#3F3D56"/>
<path d="M186.249 189.289L159.742 184.715L159.481 184.109L158.213 184.207L159.742 187.764L186.249 192.338L296.865 172.157L264.084 176.057L186.249 189.289Z" fill="#40B59F"/>
<path d="M327.705 285.237H286.925V293.369H327.705V285.237Z" fill="#E6E6E6"/>
<path d="M176.18 0H52.5646C48.1786 0.00493475 43.9736 1.74421 40.8723 4.83627C37.7709 7.92833 36.0264 12.1206 36.0214 16.4935V81.9255C36.0264 86.2984 37.7709 90.4907 40.8723 93.5827C43.9736 96.6748 48.1786 98.4141 52.5646 98.419H176.18C180.566 98.414 184.771 96.6747 187.872 93.5827C190.974 90.4906 192.718 86.2983 192.723 81.9255V16.4935C192.718 12.1206 190.974 7.92835 187.872 4.83629C184.771 1.74424 180.566 0.00494568 176.18 0Z" fill="#E6E6E6"/>
<path d="M52.5644 13.4208C51.7473 13.4216 50.9639 13.7456 50.3861 14.3217C49.8084 14.8977 49.4834 15.6787 49.4825 16.4933V81.9256C49.4834 82.7403 49.8084 83.5213 50.3861 84.0973C50.9639 84.6734 51.7473 84.9974 52.5644 84.9982H176.18C176.997 84.9974 177.78 84.6734 178.358 84.0973C178.936 83.5213 179.261 82.7403 179.262 81.9256V16.4933C179.261 15.6787 178.936 14.8977 178.358 14.3217C177.78 13.7456 176.997 13.4216 176.18 13.4208H52.5644Z" fill="white"/>
<path d="M111.871 78.1005C111.829 78.1005 111.786 78.0993 111.744 78.097C111.239 78.0684 110.758 77.8694 110.382 77.5326C110.005 77.1957 109.754 76.7411 109.671 76.2435L102.517 33.4462L96.1999 58.6381C96.0794 59.1189 95.801 59.5458 95.4092 59.8508C95.0174 60.1558 94.5345 60.3215 94.0374 60.3215H85.1212C84.53 60.3215 83.963 60.0873 83.545 59.6705C83.1269 59.2538 82.8921 58.6885 82.8921 58.0991C82.8921 57.5097 83.1269 56.9444 83.545 56.5276C83.963 56.1109 84.53 55.8767 85.1212 55.8767H92.297L100.791 22.0021C100.915 21.5065 101.207 21.0687 101.617 20.7623C102.027 20.456 102.531 20.2999 103.043 20.3203C103.555 20.3407 104.044 20.5363 104.428 20.8743C104.812 21.2122 105.068 21.6718 105.152 22.1757L112.443 65.7886L118.643 44.1543C118.774 43.6979 119.048 43.2952 119.425 43.0052C119.802 42.7153 120.262 42.5533 120.738 42.543C121.214 42.5327 121.681 42.6746 122.07 42.9479C122.459 43.2213 122.75 43.6117 122.901 44.0621L126.851 55.8767H134.161C134.752 55.8767 135.319 56.1109 135.737 56.5276C136.155 56.9444 136.39 57.5097 136.39 58.0991C136.39 58.6885 136.155 59.2538 135.737 59.6705C135.319 60.0873 134.752 60.3215 134.161 60.3215H125.244C124.776 60.3215 124.32 60.1747 123.941 59.902C123.561 59.6292 123.278 59.2444 123.13 58.8019L120.95 52.2826L114.013 76.4886C113.88 76.9528 113.599 77.3612 113.213 77.652C112.826 77.9428 112.355 78.1003 111.871 78.1005Z" fill="#40B59F"/>
<path d="M139.294 64.6721C142.916 64.6721 145.852 61.7448 145.852 58.1337C145.852 54.5227 142.916 51.5953 139.294 51.5953C135.672 51.5953 132.736 54.5227 132.736 58.1337C132.736 61.7448 135.672 64.6721 139.294 64.6721Z" fill="#3F3D56"/>
<path d="M368.088 0H244.472C240.086 0.00494568 235.881 1.74424 232.78 4.83629C229.679 7.92835 227.934 12.1206 227.929 16.4935V81.9255C227.934 86.2983 229.679 90.4906 232.78 93.5827C235.881 96.6747 240.086 98.414 244.472 98.419H368.088C372.474 98.414 376.678 96.6748 379.78 93.5827C382.881 90.4907 384.626 86.2983 384.631 81.9255V16.4935C384.626 12.1206 382.881 7.92834 379.78 4.83628C376.678 1.74422 372.474 0.00494204 368.088 0Z" fill="#E6E6E6"/>
<path d="M244.472 13.4208C243.655 13.4216 242.872 13.7456 242.294 14.3217C241.716 14.8977 241.391 15.6787 241.39 16.4933V81.9256C241.391 82.7403 241.716 83.5213 242.294 84.0973C242.872 84.6734 243.655 84.9974 244.472 84.9982H368.088C368.905 84.9974 369.688 84.6734 370.266 84.0973C370.844 83.5213 371.169 82.7403 371.169 81.9256V16.4933C371.169 15.6787 370.844 14.8977 370.266 14.3217C369.688 13.7456 368.905 13.4216 368.088 13.4208H244.472Z" fill="white"/>
<path d="M306.28 52.7318C315.285 52.7318 322.586 45.4534 322.586 36.475C322.586 27.4966 315.285 20.2182 306.28 20.2182C297.274 20.2182 289.974 27.4966 289.974 36.475C289.974 45.4534 297.274 52.7318 306.28 52.7318Z" fill="#40B59F"/>
<path d="M306.28 55.4413C312.046 55.4413 317.576 57.725 321.653 61.79C325.73 65.8549 328.021 71.3683 328.021 77.117V78.2008H284.539V77.117C284.539 71.3683 286.829 65.8549 290.907 61.79C294.984 57.725 300.514 55.4413 306.28 55.4413Z" fill="#40B59F"/>
<path d="M273.125 60.8602C279.429 60.8602 284.539 55.7653 284.539 49.4804C284.539 43.1955 279.429 38.1006 273.125 38.1006C266.821 38.1006 261.711 43.1955 261.711 49.4804C261.711 55.7653 266.821 60.8602 273.125 60.8602Z" fill="#3F3D56"/>
<path d="M284.303 66.0888C282.11 64.1493 279.401 62.8831 276.502 62.4425C273.604 62.0018 270.639 62.4054 267.966 63.6048C265.292 64.8042 263.023 66.7483 261.431 69.2031C259.839 71.6579 258.993 74.519 258.993 77.4422V78.2008H281.278V77.117C281.273 73.2365 282.318 69.4266 284.303 66.0888Z" fill="#3F3D56"/>
<path d="M339.435 60.8602C345.739 60.8602 350.849 55.7653 350.849 49.4804C350.849 43.1955 345.739 38.1006 339.435 38.1006C333.131 38.1006 328.021 43.1955 328.021 49.4804C328.021 55.7653 333.131 60.8602 339.435 60.8602Z" fill="#3F3D56"/>
<path d="M328.256 66.0888C330.45 64.1493 333.159 62.8831 336.057 62.4425C338.956 62.0018 341.92 62.4054 344.594 63.6048C347.268 64.8042 349.537 66.7483 351.129 69.2031C352.721 71.6579 353.567 74.519 353.566 77.4422V78.2008H331.282V77.117C331.287 73.2365 330.242 69.4266 328.256 66.0888Z" fill="#3F3D56"/>
<path d="M559.995 0H436.38C431.994 0.00493293 427.789 1.74421 424.688 4.83627C421.586 7.92833 419.842 12.1206 419.837 16.4935V81.9255C419.842 86.2984 421.586 90.4907 424.688 93.5827C427.789 96.6748 431.994 98.4141 436.38 98.419H559.995C564.381 98.414 568.586 96.6748 571.687 93.5827C574.789 90.4907 576.533 86.2983 576.538 81.9255V16.4935C576.533 12.1206 574.789 7.92834 571.687 4.83628C568.586 1.74422 564.381 0.00494204 559.995 0Z" fill="#E6E6E6"/>
<path d="M436.38 13.4208C435.563 13.4216 434.779 13.7456 434.201 14.3217C433.624 14.8977 433.299 15.6787 433.298 16.4933V81.9256C433.299 82.7403 433.624 83.5213 434.201 84.0973C434.779 84.6734 435.563 84.9974 436.38 84.9982H559.995C560.812 84.9974 561.596 84.6734 562.174 84.0973C562.751 83.5213 563.076 82.7403 563.077 81.9256V16.4933C563.076 15.6787 562.751 14.8977 562.174 14.3217C561.596 13.7456 560.812 13.4216 559.995 13.4208H436.38Z" fill="white"/>
<path d="M496.118 79.4672C495.852 79.4672 495.589 79.415 495.344 79.3137C495.098 79.2123 494.875 79.0637 494.687 78.8764C494.499 78.6891 494.35 78.4667 494.249 78.222C494.147 77.9772 494.095 77.7149 494.095 77.45V61.3126C494.096 60.7782 494.309 60.2661 494.689 59.8886C495.068 59.5111 495.582 59.2991 496.118 59.2991C496.654 59.2991 497.168 59.5111 497.547 59.8886C497.927 60.2661 498.14 60.7782 498.141 61.3126V77.45C498.141 77.7149 498.089 77.9772 497.987 78.222C497.885 78.4667 497.736 78.6891 497.549 78.8764C497.361 79.0637 497.138 79.2123 496.892 79.3137C496.647 79.415 496.384 79.4672 496.118 79.4672Z" fill="#40B59F"/>
<path d="M503.199 71.3984H489.036C488.5 71.3984 487.985 71.1859 487.606 70.8076C487.226 70.4293 487.013 69.9162 487.013 69.3812C487.013 68.8462 487.226 68.3332 487.606 67.9549C487.985 67.5766 488.5 67.3641 489.036 67.3641H503.199C503.736 67.3641 504.25 67.5766 504.63 67.9549C505.009 68.3332 505.222 68.8462 505.222 69.3812C505.222 69.9162 505.009 70.4293 504.63 70.8076C504.25 71.1859 503.736 71.3984 503.199 71.3984Z" fill="#40B59F"/>
<path d="M523.432 33.0721C523.166 33.0721 522.903 33.0199 522.657 32.9185C522.412 32.8172 522.189 32.6686 522.001 32.4813C521.813 32.294 521.664 32.0716 521.562 31.8269C521.461 31.5821 521.408 31.3198 521.408 31.0549V22.9862H513.315C513.05 22.9862 512.787 22.934 512.541 22.8326C512.296 22.7313 512.073 22.5827 511.885 22.3954C511.697 22.2081 511.548 21.9857 511.446 21.741C511.345 21.4962 511.292 21.2339 511.292 20.969C511.292 20.7041 511.345 20.4418 511.446 20.1971C511.548 19.9523 511.697 19.73 511.885 19.5427C512.073 19.3554 512.296 19.2068 512.541 19.1054C512.787 19.004 513.05 18.9518 513.315 18.9518H523.432C523.697 18.9518 523.96 19.004 524.206 19.1054C524.451 19.2068 524.674 19.3554 524.862 19.5427C525.05 19.73 525.199 19.9523 525.301 20.1971C525.403 20.4418 525.455 20.7041 525.455 20.969V31.0549C525.455 31.3198 525.403 31.5821 525.301 31.8268C525.199 32.0716 525.05 32.294 524.862 32.4813C524.674 32.6686 524.451 32.8172 524.206 32.9185C523.96 33.0199 523.697 33.0721 523.432 33.0721Z" fill="#40B59F"/>
<path d="M511.201 35.18C510.801 35.18 510.41 35.0617 510.077 34.8401C509.744 34.6184 509.485 34.3034 509.332 33.9348C509.179 33.5662 509.139 33.1606 509.217 32.7693C509.295 32.378 509.488 32.0186 509.77 31.7365L522.001 19.5426C522.381 19.1651 522.895 18.9533 523.431 18.9537C523.967 18.954 524.481 19.1665 524.86 19.5445C525.24 19.9225 525.453 20.435 525.453 20.9696C525.453 21.5041 525.241 22.0169 524.862 22.3954L512.632 34.5892C512.444 34.7768 512.221 34.9256 511.976 35.027C511.73 35.1283 511.467 35.1804 511.201 35.18Z" fill="#40B59F"/>
<path d="M496.118 61.3125C492.316 61.3125 488.6 60.1886 485.439 58.083C482.278 55.9773 479.815 52.9844 478.36 49.4828C476.905 45.9812 476.525 42.1281 477.266 38.4108C478.008 34.6935 479.839 31.2789 482.527 28.5989C485.215 25.9189 488.64 24.0938 492.368 23.3544C496.097 22.615 499.961 22.9944 503.473 24.4449C506.986 25.8953 509.987 28.3515 512.099 31.5028C514.211 34.6542 515.339 38.3592 515.339 42.1493C515.333 47.23 513.306 52.1009 509.703 55.6934C506.099 59.286 501.214 61.3068 496.118 61.3125ZM496.118 27.0205C493.117 27.0205 490.183 27.9078 487.687 29.5702C485.192 31.2326 483.247 33.5954 482.099 36.3598C480.95 39.1242 480.65 42.1661 481.235 45.1008C481.821 48.0355 483.266 50.7312 485.388 52.8471C487.51 54.9629 490.214 56.4037 493.158 56.9875C496.101 57.5712 499.152 57.2716 501.925 56.1266C504.698 54.9815 507.067 53.0424 508.735 50.5545C510.402 48.0666 511.292 45.1415 511.292 42.1493C511.288 38.1383 509.687 34.2929 506.843 31.4567C503.998 28.6205 500.141 27.0251 496.118 27.0205Z" fill="#3F3D56"/>
<path d="M613 378.458H0V380H613V378.458Z" fill="#3F3D56"/>
</g>
<defs>
<clipPath id="clip0_38_298">
<rect width="613" height="380" fill="white"/>
</clipPath>
</defs>
</svg>
