<svg width="562" height="336" viewBox="0 0 562 336" fill="none" xmlns="http://www.w3.org/2000/svg">
<g clip-path="url(#clip0_34_166)">
<path d="M430.28 332.2C423.085 326.121 418.715 316.516 419.861 307.166C421.007 297.816 428.106 289.221 437.314 287.235C446.522 285.25 457.019 290.746 459.816 299.741C461.355 282.399 463.129 264.33 472.349 249.561C480.698 236.189 495.158 226.62 510.829 224.909C526.501 223.197 543.001 229.662 552.774 242.031C562.548 254.401 564.941 272.383 558.096 286.584C553.053 297.046 543.763 304.831 534.029 311.165C502.575 331.46 464.85 339.713 427.796 334.405L430.28 332.2Z" fill="#F2F2F2"/>
<path d="M537.277 230.02C524.346 240.553 512.484 252.333 501.861 265.189C485.236 285.241 471.783 307.722 461.97 331.851C461.252 333.611 464.11 334.377 464.82 332.636C480.875 293.423 506.506 258.861 539.367 232.111C540.843 230.909 538.741 228.829 537.277 230.02Z" fill="white"/>
<path d="M180.917 330.548C190.799 322.198 196.802 309.006 195.228 296.164C193.654 283.322 183.903 271.516 171.256 268.789C158.608 266.062 144.191 273.611 140.35 285.966C138.236 262.146 135.799 237.328 123.135 217.044C111.669 198.677 91.8077 185.534 70.2831 183.183C48.7584 180.832 26.0957 189.712 12.6715 206.701C-0.752625 223.691 -4.03947 248.389 5.36245 267.894C12.2885 282.263 25.0488 292.957 38.4184 301.656C81.0719 329.411 133.984 340.986 184.33 333.577" fill="#F2F2F2"/>
<path d="M33.9569 190.204C51.7174 204.67 68.0108 220.85 82.6014 238.508C97.1944 256.149 110.042 275.163 120.963 295.284C127.068 306.571 132.552 318.183 137.391 330.068C138.378 332.486 134.452 333.538 133.476 331.147C124.905 310.194 114.302 290.132 101.817 271.247C89.3937 252.431 75.174 234.865 59.3582 218.795C50.4127 209.71 40.9744 201.123 31.0862 193.075C29.0594 191.424 31.9468 188.567 33.9569 190.204Z" fill="white"/>
<path d="M403.413 335.265H167.631V93.3444C167.631 41.874 209.505 0 260.975 0H310.069C361.539 0 403.413 41.874 403.413 93.3444V335.265Z" fill="#F2F2F2"/>
<path d="M354.318 335.264H167.631V93.3443C167.579 73.6221 173.825 54.3983 185.457 38.4719C185.886 37.8874 186.314 37.3105 186.755 36.7399C192.381 29.3602 199.077 22.8611 206.621 17.457C207.047 17.1469 207.475 16.8422 207.909 16.5375C214.222 12.169 221.051 8.59783 228.24 5.90529C228.667 5.74348 229.101 5.58135 229.536 5.42584C236.038 3.10552 242.778 1.51611 249.631 0.686966C250.056 0.628925 250.492 0.583506 250.929 0.538087C257.607 -0.176026 264.343 -0.176026 271.022 0.538087C271.457 0.583506 271.893 0.628919 272.323 0.687587C279.175 1.51679 285.913 3.106 292.413 5.42587C292.848 5.58137 293.283 5.74349 293.711 5.90562C300.811 8.5642 307.56 12.0821 313.805 16.3807C314.239 16.6788 314.673 16.9835 315.101 17.2882C319.33 20.3067 323.302 23.6695 326.976 27.3423C329.923 30.2882 332.669 33.4284 335.196 36.7418C335.636 37.3105 336.063 37.8874 336.491 38.4709C348.124 54.3975 354.37 73.6217 354.318 93.3443V335.264Z" fill="#CCCCCC"/>
<path d="M339.138 227.063C344.846 227.063 349.474 222.435 349.474 216.727C349.474 211.019 344.846 206.391 339.138 206.391C333.43 206.391 328.802 211.019 328.802 216.727C328.802 222.435 333.43 227.063 339.138 227.063Z" fill="#40B59F"/>
<path d="M384.097 328.018H376.178L372.41 297.471L384.099 297.472L384.097 328.018Z" fill="#FFB8B8"/>
<path d="M370.521 325.756H385.794V335.372H360.904C360.904 334.109 361.153 332.859 361.636 331.692C362.119 330.525 362.828 329.465 363.721 328.572C364.614 327.679 365.674 326.971 366.84 326.488C368.007 326.004 369.258 325.756 370.521 325.756Z" fill="#2F2E41"/>
<path d="M423.502 328.018H415.582L411.814 297.471L423.503 297.472L423.502 328.018Z" fill="#FFB8B8"/>
<path d="M409.925 325.756H425.199V335.372H400.309C400.309 334.109 400.557 332.859 401.041 331.692C401.524 330.525 402.232 329.465 403.125 328.572C404.018 327.679 405.078 326.971 406.245 326.488C407.412 326.004 408.662 325.756 409.925 325.756Z" fill="#2F2E41"/>
<path d="M344.369 218.774C343.799 217.935 343.42 216.981 343.259 215.979C343.098 214.977 343.159 213.953 343.436 212.977C343.714 212.001 344.203 211.098 344.867 210.332C345.532 209.565 346.356 208.953 347.283 208.54L374.204 134.338L387.451 141.568L356.713 212.478C357.304 214.08 357.287 215.844 356.665 217.434C356.043 219.025 354.859 220.333 353.338 221.109C351.816 221.885 350.063 222.076 348.41 221.646C346.757 221.215 345.319 220.194 344.369 218.774Z" fill="#FFB8B8"/>
<path d="M419.456 232.717C418.576 232.213 417.818 231.521 417.234 230.692C416.65 229.862 416.255 228.914 416.076 227.916C415.898 226.917 415.941 225.891 416.202 224.911C416.463 223.931 416.936 223.019 417.588 222.242L409.248 143.749L424.323 144.438L427.789 221.646C429.023 222.826 429.782 224.419 429.92 226.121C430.059 227.824 429.568 229.518 428.541 230.883C427.513 232.247 426.021 233.188 424.347 233.526C422.673 233.864 420.933 233.576 419.456 232.717Z" fill="#FFB8B8"/>
<path d="M395.406 120.594C404.169 120.594 411.272 113.491 411.272 104.728C411.272 95.9657 404.169 88.8622 395.406 88.8622C386.644 88.8622 379.54 95.9657 379.54 104.728C379.54 113.491 386.644 120.594 395.406 120.594Z" fill="#FFB8B8"/>
<path d="M419.355 214.866H371.523L371.58 214.493C371.666 213.937 380.105 158.655 373.881 140.57C373.256 138.793 373.311 136.847 374.035 135.108C374.759 133.369 376.1 131.959 377.802 131.149C386.698 126.96 403.775 121.801 418.188 134.32C420.309 136.193 421.965 138.533 423.026 141.156C424.087 143.779 424.522 146.613 424.299 149.434L419.355 214.866Z" fill="#40B59F"/>
<path d="M380.709 166.825L359.175 162.456L369.269 138.536C369.873 136.219 371.371 134.236 373.435 133.023C375.499 131.809 377.96 131.463 380.278 132.062C382.597 132.66 384.583 134.154 385.801 136.215C387.02 138.276 387.371 140.736 386.779 143.056L380.709 166.825Z" fill="#40B59F"/>
<path d="M408.29 174.937L406.995 145.26C406.014 139.681 409.207 134.407 414.119 133.545C419.032 132.686 423.829 136.555 424.815 142.175L429.681 169.906L408.29 174.937Z" fill="#40B59F"/>
<path d="M417.764 211.313C425.46 240.625 426.3 277.894 424.224 318.546L413.888 317.254L395.155 239.736L384.819 318.546L373.191 317.9C369.718 275.246 366.335 238.628 371.899 214.543L417.764 211.313Z" fill="#2F2E41"/>
<path d="M405.86 116.99C402.9 120.143 397.404 118.45 397.018 114.143C396.988 113.809 396.99 113.472 397.025 113.138C397.224 111.23 398.326 109.498 398.062 107.483C398.002 106.982 397.815 106.504 397.519 106.095C395.161 102.937 389.624 107.508 387.398 104.649C386.033 102.895 387.637 100.135 386.59 98.1756C385.208 95.5893 381.113 96.8651 378.545 95.4488C375.688 93.8729 375.859 89.4894 377.74 86.8232C380.033 83.5716 384.055 81.8365 388.026 81.5864C391.997 81.3364 395.941 82.4099 399.648 83.8548C403.861 85.4964 408.038 87.7652 410.63 91.4693C413.783 95.9739 414.086 102.03 412.51 107.297C411.551 110.501 408.277 114.415 405.86 116.99Z" fill="#2F2E41"/>
<path d="M542.609 335.68H65.6878C65.4842 335.68 65.2892 335.598 65.1454 335.454C65.0017 335.31 64.9209 335.115 64.9209 334.911C64.9209 334.707 65.0017 334.512 65.1454 334.368C65.2892 334.224 65.4842 334.142 65.6878 334.142H542.609C542.812 334.142 543.008 334.224 543.151 334.368C543.295 334.512 543.376 334.707 543.376 334.911C543.376 335.115 543.295 335.31 543.151 335.454C543.008 335.598 542.812 335.68 542.609 335.68Z" fill="#3F3D56"/>
<path d="M302.963 265.175H218.986C217.88 265.181 216.817 264.748 216.03 263.972C215.243 263.195 214.796 262.137 214.787 261.031V73.5872C214.796 72.4812 215.243 71.4238 216.03 70.6469C216.817 69.87 217.88 69.437 218.986 69.443H302.963C304.069 69.437 305.132 69.87 305.92 70.6469C306.707 71.4238 307.154 72.4812 307.162 73.5872V261.031C307.154 262.137 306.707 263.195 305.92 263.972C305.132 264.748 304.069 265.181 302.963 265.175Z" fill="white"/>
<path d="M307.162 130.094H214.787V131.386H307.162V130.094Z" fill="#CCCCCC"/>
<path d="M307.485 203.807H215.11V205.099H307.485V203.807Z" fill="#CCCCCC"/>
<path d="M245.148 69.4431H243.856V265.822H245.148V69.4431Z" fill="#CCCCCC"/>
<path d="M277.447 69.4431H276.155V265.822H277.447V69.4431Z" fill="#CCCCCC"/>
</g>
<defs>
<clipPath id="clip0_34_166">
<rect width="562" height="336" fill="white"/>
</clipPath>
</defs>
</svg>
