<svg width="562" height="404" viewBox="0 0 562 404" fill="none" xmlns="http://www.w3.org/2000/svg">
<g clip-path="url(#clip0_34_192)">
<path d="M14.8806 402.471C14.8806 402.965 15.2769 403.361 15.7704 403.361H561.11C561.604 403.361 562 402.965 562 402.471C562 401.978 561.604 401.581 561.11 401.581H15.7704C15.2769 401.581 14.8806 401.978 14.8806 402.471Z" fill="#3F3D58"/>
<path d="M189.507 71.1501H14.6039C7.93383 71.1501 2.50504 65.7213 2.50504 59.0512C2.50504 52.3811 7.93383 46.9523 14.6039 46.9523H189.507C196.177 46.9523 201.606 52.3811 201.606 59.0512C201.606 65.7213 196.177 71.1501 189.507 71.1501ZM14.6039 48.4479C8.75638 48.4479 4.00057 53.2037 4.00057 59.0512C4.00057 64.8988 8.75638 69.6546 14.6039 69.6546H189.507C195.354 69.6546 200.11 64.8988 200.11 59.0512C200.11 53.2037 195.354 48.4479 189.507 48.4479H14.6039Z" fill="#E2E3E4"/>
<path d="M189.507 212.74H14.6039C8.13572 212.74 2.87891 207.483 2.87891 201.015C2.87891 194.547 8.13572 189.29 14.6039 189.29H189.507C195.975 189.29 201.232 194.547 201.232 201.015C201.232 207.483 195.975 212.74 189.507 212.74Z" fill="#40B59F"/>
<path d="M132.19 23.45H11.725C5.25681 23.45 0 18.1932 0 11.725C0 5.25681 5.25681 0 11.725 0H132.19C138.659 0 143.915 5.25681 143.915 11.725C143.915 18.1932 138.659 23.45 132.19 23.45Z" fill="#E2E3E4"/>
<path d="M189.507 118.469H14.6039C7.93383 118.469 2.50504 113.04 2.50504 106.37C2.50504 99.6999 7.93383 94.2711 14.6039 94.2711H189.507C196.177 94.2711 201.606 99.6999 201.606 106.37C201.606 113.04 196.177 118.469 189.507 118.469ZM14.6039 95.7667C8.75638 95.7667 4.00057 100.522 4.00057 106.37C4.00057 112.218 8.75638 116.973 14.6039 116.973H189.507C195.354 116.973 200.11 112.218 200.11 106.37C200.11 100.522 195.354 95.7667 189.507 95.7667H14.6039Z" fill="#E2E3E4"/>
<path d="M189.507 165.795H14.6039C7.93383 165.795 2.50504 160.366 2.50504 153.696C2.50504 147.026 7.93383 141.597 14.6039 141.597H189.507C196.177 141.597 201.606 147.026 201.606 153.696C201.606 160.366 196.177 165.795 189.507 165.795ZM14.6039 143.093C8.75638 143.093 4.00057 147.849 4.00057 153.696C4.00057 159.544 8.75638 164.3 14.6039 164.3H189.507C195.354 164.3 200.11 159.544 200.11 153.696C200.11 147.849 195.354 143.093 189.507 143.093H14.6039Z" fill="#E2E3E4"/>
<path d="M8.59184 38.2633H54.43C55.5218 38.2633 56.4116 39.1457 56.4116 40.2449C56.4116 41.3366 55.5218 42.2265 54.43 42.2265H8.59184C7.5001 42.2265 6.61026 41.3441 6.61026 40.2449C6.61026 39.1532 7.5001 38.2633 8.59184 38.2633Z" fill="#E2E3E4"/>
<path d="M8.59184 86.7037H54.43C55.5218 86.7037 56.4116 87.5861 56.4116 88.6778C56.4116 89.7696 55.5218 90.6594 54.43 90.6594H8.59184C7.5001 90.6594 6.61026 89.7771 6.61026 88.6853C6.61026 87.5936 7.5001 86.7037 8.59184 86.7037Z" fill="#E2E3E4"/>
<path d="M8.59184 135.152H54.43C55.5218 135.152 56.4116 136.034 56.4116 137.133C56.4116 138.225 55.5218 139.107 54.43 139.107H8.59184C7.5001 139.107 6.61026 138.225 6.61026 137.126C6.61026 136.034 7.5001 135.152 8.59184 135.152Z" fill="#E2E3E4"/>
<path d="M334.312 98.8998L317.592 104.403V80.3328H332.764L334.312 98.8998Z" fill="#9F616A"/>
<path d="M319.663 86.9953C328.865 86.9953 336.324 79.5363 336.324 70.3351C336.324 61.1339 328.865 53.6748 319.663 53.6748C310.462 53.6748 303.003 61.1339 303.003 70.3351C303.003 79.5363 310.462 86.9953 319.663 86.9953Z" fill="#9F616A"/>
<path d="M324.24 68.6825C321.451 68.6003 319.618 65.7812 318.534 63.2088C317.45 60.6365 316.336 57.6828 313.748 56.621C311.632 55.7536 307.901 61.6236 306.233 60.0607C304.491 58.4306 306.189 50.0631 308.036 48.5601C309.883 47.0571 312.41 46.7654 314.788 46.6533C320.591 46.3841 326.431 46.8552 332.121 48.0441C335.643 48.7769 339.262 49.8836 341.805 52.426C345.02 55.6564 345.843 60.5244 346.075 65.0783C346.314 69.7369 346.045 74.6123 343.779 78.6876C341.513 82.763 336.772 85.769 332.226 84.7296C331.77 82.262 332.233 79.727 332.413 77.2145C332.585 74.7095 332.405 72.0026 330.872 70.0061C329.347 68.0095 326.072 67.2169 324.292 68.9891" fill="#2F2E43"/>
<path d="M344.736 74.4553C346.404 73.2364 348.4 72.212 350.449 72.4662C352.662 72.7354 354.539 74.56 355.108 76.721C355.676 78.8821 355.04 81.26 353.664 83.0247C352.296 84.7894 350.255 85.956 348.101 86.5392C346.852 86.8757 345.484 87.0178 344.295 86.5093C342.545 85.7541 341.595 83.5182 342.283 81.7386" fill="#2F2E43"/>
<path d="M280.981 231.21C279.867 236.684 281.909 241.686 285.528 242.382C289.147 243.077 292.983 239.196 294.09 233.722C294.561 231.539 294.486 229.281 293.873 227.127L307.654 141.321L290.418 138.075L283.763 225.19C282.35 226.955 281.4 229.019 280.981 231.217V231.21Z" fill="#9F616A"/>
<path d="M317.413 93.3589H305.65C297.335 94.6226 295.077 99.0569 293.185 107.252C290.299 119.755 286.612 136.4 287.345 136.647C288.519 137.036 308.544 146.458 318.751 144.304L317.413 93.3589Z" fill="#E2E3E4"/>
<path d="M328.786 366.676H313.128V388.892H328.786V366.676Z" fill="#9F616A"/>
<path d="M297.881 402.337C296.236 402.337 294.77 402.299 293.663 402.194C289.506 401.813 285.535 398.74 283.539 396.945C282.641 396.138 282.357 394.851 282.821 393.745C283.157 392.952 283.823 392.354 284.653 392.122L295.645 388.981L313.442 376.972L313.644 377.331C313.719 377.466 315.468 380.614 316.052 382.738C316.276 383.545 316.216 384.218 315.88 384.742C315.648 385.101 315.319 385.31 315.057 385.43C315.379 385.766 316.388 386.454 319.499 386.947C324.038 387.665 324.995 382.962 325.032 382.767L325.062 382.61L325.197 382.521C327.358 381.13 328.689 380.494 329.145 380.629C329.429 380.711 329.908 380.861 331.201 393.67C331.329 394.074 332.233 397.02 331.62 399.839C330.955 402.905 317.555 401.851 314.87 401.611C314.795 401.619 304.76 402.337 297.888 402.337H297.881Z" fill="#2F2E43"/>
<path d="M373.373 349.221L360.087 357.507L371.843 376.358L385.129 368.072L373.373 349.221Z" fill="#9F616A"/>
<path d="M355.728 399.293C353.889 399.293 352.199 399.069 350.995 398.859C349.813 398.65 348.886 397.708 348.692 396.526C348.557 395.674 348.804 394.814 349.387 394.178L357.052 385.699L365.801 366.092L366.16 366.287C366.294 366.361 369.442 368.104 371.065 369.599C371.686 370.168 371.992 370.773 371.977 371.394C371.97 371.828 371.805 372.172 371.641 372.418C372.089 372.538 373.308 372.583 376.21 371.357C380.442 369.569 378.767 365.068 378.692 364.881L378.632 364.731L378.7 364.589C379.799 362.264 380.584 361.022 381.048 360.895C381.339 360.813 381.818 360.686 389.692 370.878C390.013 371.147 392.339 373.174 393.311 375.888C394.365 378.842 382.439 385.041 380.038 386.252C379.963 386.312 367.483 395.382 362.353 397.962C360.32 398.987 357.912 399.301 355.721 399.301L355.728 399.293Z" fill="#2F2E43"/>
<path d="M340.317 180.893H296.475L292.497 221.676L309.905 372.366H332.286L323.335 285.333L359.639 363.909L379.53 349.985L351.182 276.629C351.182 276.629 361.307 212.725 353.35 196.805C345.394 180.893 340.317 180.893 340.317 180.893Z" fill="#2F2E43"/>
<path d="M362.129 183.375H292.497L313.39 93.3589H343.727L362.129 183.375Z" fill="#E2E3E4"/>
<path d="M368.395 231.21C369.51 236.683 367.468 241.686 363.849 242.381C360.23 243.077 356.394 239.196 355.287 233.722C354.816 231.539 354.891 229.281 355.504 227.127L341.723 141.321L358.959 138.075L365.614 225.19C367.027 226.955 367.977 229.019 368.395 231.217V231.21Z" fill="#9F616A"/>
<path d="M331.964 93.3589H343.727C352.042 94.6226 354.3 99.0569 356.192 107.252C359.078 119.755 362.765 136.4 362.032 136.647C360.858 137.036 340.833 146.458 330.626 144.304L331.964 93.3589Z" fill="#E2E3E4"/>
</g>
<defs>
<clipPath id="clip0_34_192">
<rect width="562" height="403.361" fill="white"/>
</clipPath>
</defs>
</svg>
